<svg width="153" height="47" viewBox="0 0 153 47" fill="none" xmlns="http://www.w3.org/2000/svg">
<path fill-rule="evenodd" clip-rule="evenodd" d="M33.5562 0.858826C33.7996 0.858826 33.9091 0.883028 34.0491 0.973786C34.1525 1.04034 34.2803 1.19766 34.4872 1.60305L34.542 29.9439L34.6576 30.3856C34.7245 30.6216 34.828 30.9362 34.8888 31.0754C34.9497 31.2206 35.0836 31.4747 35.187 31.6441C35.2965 31.8135 35.4669 32.0313 35.5765 32.1342C35.686 32.2371 35.8807 32.3762 36.0085 32.4488C36.1363 32.5275 36.3858 32.6304 36.5562 32.6909C36.7266 32.7453 37.0856 32.8179 37.3534 32.8482C37.7124 32.8905 37.9984 32.8905 38.4122 32.8542C38.7286 32.824 39.252 32.7393 39.5745 32.6667C39.9031 32.5941 40.3899 32.4609 40.6638 32.3823C41.035 32.2613 41.2053 32.2371 41.3879 32.2613C41.5157 32.2794 41.6983 32.3399 41.7956 32.4065C41.893 32.467 42.0269 32.6001 42.0938 32.6969C42.1607 32.7998 42.3007 33.2233 42.4163 33.6771C42.5259 34.1127 42.6354 34.621 42.6536 34.8086C42.6841 35.099 42.6719 35.1716 42.5624 35.3652C42.4954 35.4923 42.3433 35.6617 42.2094 35.7524C42.0816 35.8493 41.6678 36.0187 41.254 36.1578C40.8585 36.2909 40.3352 36.4422 40.0917 36.5027C39.8544 36.5632 39.3737 36.66 39.0329 36.7145C38.613 36.7871 38.0836 36.8295 37.3777 36.8537C36.7388 36.8658 36.1485 36.8537 35.832 36.8173C35.546 36.7871 35.0896 36.7145 34.8219 36.654C34.5541 36.5995 34.0856 36.4725 33.7874 36.3696C33.4892 36.2728 33.0572 36.0973 32.832 35.9824C32.6068 35.8674 32.2782 35.6798 32.1079 35.5528C31.9375 35.4318 31.6454 35.1776 31.4628 34.978C31.2803 34.7844 31.0368 34.4879 30.9212 34.3185C30.8117 34.149 30.6352 33.8223 30.5257 33.5984C30.4222 33.3746 30.2762 32.9873 30.2092 32.7514C30.1362 32.5093 30.0449 32.0919 29.9963 31.8256C29.9537 31.5534 29.8928 31.0088 29.8624 30.6155C29.832 30.1496 29.8076 25.1821 29.8076 16.5843C29.8076 5.26969 29.8198 3.25485 29.8806 3.13384C29.9232 3.05518 30.1119 2.84341 30.3066 2.65584C30.5013 2.46828 30.836 2.18995 31.049 2.03264C31.262 1.87532 31.621 1.63935 31.8523 1.50624C32.0774 1.37917 32.4851 1.17951 32.7529 1.0706C33.1302 0.913281 33.3188 0.864876 33.5562 0.858826ZM52.3658 2.48643C52.4814 2.50458 52.6213 2.54088 52.6761 2.57114C52.7309 2.59534 52.8465 2.68005 52.9256 2.75265C53.0047 2.83131 53.1021 3.00678 53.1447 3.14594C53.2055 3.36376 53.2177 4.07168 53.2177 11.8648L56.1508 11.8769C58.6823 11.889 59.1082 11.9011 59.2665 11.9737C59.3638 12.0161 59.5038 12.131 59.7046 12.4094V13.7042C59.7046 14.9385 59.6985 15.0051 59.5951 15.1442C59.5342 15.2229 59.4247 15.3318 59.3456 15.3923C59.2117 15.4891 59.1143 15.4951 56.2117 15.5072C53.4003 15.5194 53.2177 15.5254 53.2177 15.6101C53.2177 15.6585 53.1812 18.7201 53.1447 22.4109C53.0899 27.082 53.0838 29.2783 53.1203 29.6353C53.1508 29.9197 53.2055 30.3009 53.2481 30.4885C53.2907 30.67 53.3759 30.9483 53.4368 31.1056C53.4976 31.2569 53.6193 31.505 53.7106 31.6441C53.8019 31.7833 53.9966 32.0132 54.1427 32.1463C54.2887 32.2794 54.5504 32.4609 54.7329 32.5456C54.9094 32.6304 55.2258 32.7332 55.4388 32.7816C55.6518 32.824 56.0717 32.8603 56.3699 32.8603C56.6924 32.8603 57.1853 32.8179 57.5869 32.7453C57.952 32.6848 58.5667 32.5456 58.9439 32.4367C59.3212 32.3278 59.7107 32.2371 59.8202 32.2371C59.9298 32.2371 60.1062 32.2794 60.2218 32.3278C60.3314 32.3823 60.4896 32.5033 60.5626 32.6001C60.6417 32.6969 60.7391 32.8784 60.7817 33.0055C60.8243 33.1326 60.9156 33.4714 60.9886 33.7497C61.0616 34.0341 61.1468 34.4213 61.1712 34.6149C61.2138 34.8509 61.2137 35.0264 61.1772 35.1655C61.1468 35.2805 61.0555 35.4499 60.9764 35.5407C60.8973 35.6314 60.6904 35.7827 60.5261 35.8674C60.3557 35.9582 59.9419 36.1276 59.6012 36.2365C59.2604 36.3515 58.7127 36.5027 58.3841 36.5753C58.0616 36.6479 57.4774 36.7447 57.094 36.7931C56.5646 36.8537 56.1325 36.8718 55.2867 36.8476C54.5869 36.8355 54.0027 36.7931 53.7106 36.7387C53.455 36.6903 53.023 36.5935 52.7552 36.5209C52.4814 36.4483 52.0676 36.3091 51.8242 36.2123C51.5808 36.1155 51.2035 35.9219 50.9783 35.7948C50.7532 35.6617 50.4063 35.4015 50.2055 35.22C50.0047 35.0324 49.7369 34.7481 49.6091 34.5726C49.4813 34.4032 49.2744 34.0825 49.1527 33.8526C49.031 33.6287 48.8728 33.2717 48.7998 33.0599C48.7268 32.8482 48.6233 32.467 48.5685 32.2068C48.5138 31.9527 48.4468 31.5594 48.4103 31.3355C48.3799 31.1117 48.3434 30.2041 48.3251 29.3267C48.3069 28.3889 48.3434 25.4544 48.4042 22.2052C48.4651 19.1618 48.5199 16.439 48.5442 15.6222H46.9924C45.4833 15.6222 45.4346 15.6162 45.2095 15.5072C45.0695 15.4346 44.9356 15.3197 44.8748 15.2108C44.7774 15.0474 44.7652 14.9203 44.7531 13.8978C44.7409 13.1596 44.7592 12.6877 44.7957 12.5364C44.8322 12.4094 44.9052 12.2339 44.966 12.1552C45.0269 12.0705 45.1729 11.9616 45.2886 11.9072C45.4711 11.8285 45.6659 11.8164 48.5929 11.8164L48.6294 10.7455C48.6537 10.1585 48.6842 8.77902 48.6963 7.67176C48.7146 6.57056 48.7389 5.427 48.7815 4.58598L49.2075 4.16849C49.4387 3.94462 49.8464 3.61183 50.1203 3.43637C50.388 3.25485 50.8079 3.01888 51.0513 2.90392C51.2887 2.78896 51.6416 2.64374 51.8242 2.57719C52.0676 2.48643 52.2197 2.46223 52.3658 2.48643ZM9.81138 10.449C10.7181 10.4611 11.5518 10.5034 11.9838 10.5518C12.3672 10.5942 12.9575 10.6789 13.2983 10.7394C13.639 10.7999 14.0711 10.8786 14.2536 10.9209C14.4423 10.9633 14.9656 11.1024 15.4159 11.2234C15.8723 11.3445 16.4869 11.526 16.7851 11.6288C17.0833 11.7256 17.5397 11.8951 17.7953 12.004C18.0509 12.1068 18.3977 12.2883 18.5681 12.4033C18.7385 12.5183 18.9515 12.7179 19.0367 12.845C19.128 12.9721 19.2253 13.1959 19.2557 13.3472C19.3044 13.5469 19.3166 15.834 19.3166 22.3988C19.3166 28.4797 19.3348 31.275 19.3774 31.4868C19.4079 31.6562 19.487 31.8922 19.5478 32.0011C19.6209 32.1282 19.7486 32.2492 19.8704 32.3097C20.0347 32.4004 20.1624 32.4125 20.6371 32.4065C21.0448 32.4004 21.4404 32.352 22.0306 32.2371C22.5966 32.1221 22.9312 32.0798 23.0773 32.0979C23.199 32.1161 23.3876 32.1766 23.4911 32.231C23.6006 32.2794 23.7528 32.4004 23.8319 32.4972C23.9171 32.5941 24.0144 32.7514 24.057 32.8542C24.0935 32.951 24.2092 33.3564 24.3126 33.7497C24.41 34.149 24.5073 34.621 24.5256 34.8086C24.5499 35.0506 24.5317 35.2018 24.4769 35.3713C24.4221 35.5225 24.3004 35.6859 24.1422 35.8251C24.0023 35.9521 23.7163 36.1336 23.5033 36.2304C23.2903 36.3333 22.9191 36.4785 22.6757 36.5572C22.4383 36.6358 21.9941 36.7447 21.6959 36.8052C21.3978 36.8597 20.9109 36.9323 20.6128 36.9626C20.2355 37.0049 19.8582 37.0049 19.3957 36.9686C19.0306 36.9384 18.5377 36.8718 18.3125 36.8173C18.0874 36.7629 17.7344 36.66 17.5397 36.5814C17.3389 36.5088 17.0955 36.3999 16.992 36.3394C16.8947 36.2788 16.6756 36.1215 16.5113 35.9945C16.3409 35.8614 16.0792 35.5951 15.921 35.4015C15.7689 35.2018 15.5681 34.8812 15.4768 34.6936C15.3855 34.506 15.2942 34.3548 15.2638 34.3669C15.2334 34.3729 15.0143 34.5302 14.7709 34.7118C14.5336 34.8933 14.1258 35.1716 13.8703 35.3289C13.6147 35.4862 13.1705 35.7343 12.8845 35.8735C12.6045 36.0126 12.136 36.2183 11.85 36.3212C11.57 36.4301 11.0771 36.5814 10.7668 36.66C10.4564 36.7387 9.92092 36.8416 9.58014 36.89C9.17243 36.9505 8.63084 36.9807 8.00406 36.9807C7.47464 36.9807 6.83568 36.9505 6.5801 36.9202C6.32452 36.8839 5.89855 36.8113 5.62471 36.7568C5.35696 36.7024 4.9249 36.5874 4.66932 36.4967C4.41374 36.412 3.96952 36.2244 3.68959 36.0792C3.40358 35.934 2.99587 35.6798 2.78289 35.5225C2.5699 35.3652 2.23521 35.0566 2.0344 34.8449C1.83358 34.627 1.54757 34.2519 1.38936 33.9978C1.23114 33.7497 1.01815 33.3383 0.914704 33.0841C0.811254 32.83 0.677378 32.4367 0.616525 32.2068C0.555673 31.9829 0.470479 31.5413 0.427882 31.2327C0.360944 30.7849 0.348773 30.4098 0.367029 29.4296C0.39137 28.4373 0.415711 28.0985 0.50699 27.681C0.567843 27.4027 0.689549 26.967 0.768657 26.719C0.853851 26.4709 1.00598 26.1018 1.10943 25.8961C1.21288 25.6904 1.40761 25.3636 1.5354 25.164C1.66928 24.9643 1.98571 24.5952 2.2413 24.3411C2.49688 24.0809 2.90459 23.7421 3.148 23.5848C3.38533 23.4214 3.82955 23.1794 4.12773 23.0342C4.42591 22.895 4.88839 22.7074 5.16223 22.6167C5.42998 22.5259 5.88638 22.3988 6.1663 22.3323C6.45231 22.2718 6.91479 22.175 7.2008 22.1326C7.48681 22.0903 7.92495 22.0298 8.18661 21.9995C8.4422 21.9693 9.32456 21.9269 10.1461 21.8966C10.9737 21.8724 12.3489 21.8301 14.7709 21.7696V15.1079L14.3693 14.9022C14.1502 14.7933 13.7242 14.6178 13.426 14.521C13.1279 14.4242 12.5984 14.285 12.2394 14.2124C11.8865 14.1398 11.351 14.0551 11.0528 14.0249C10.7546 13.9886 9.95135 13.9583 9.26979 13.9583C8.39351 13.9583 7.84584 13.9825 7.4077 14.043C7.06692 14.0914 6.32452 14.2124 5.7525 14.3092C5.18657 14.406 4.56587 14.4908 4.37114 14.4908C4.1825 14.4908 3.95126 14.4605 3.85389 14.4242C3.76262 14.3818 3.61048 14.2608 3.5192 14.1519C3.3975 14.0067 3.28188 13.7465 3.12366 13.2564C2.99587 12.8753 2.88025 12.4578 2.85591 12.3307C2.83765 12.1673 2.84982 12.0282 2.90459 11.8769C2.95936 11.7498 3.08106 11.5865 3.20885 11.4776C3.33056 11.3808 3.55572 11.2477 3.71393 11.1932C3.87215 11.1327 4.39548 11.0117 4.87622 10.9149C5.35696 10.8181 6.09328 10.691 6.50708 10.6305C6.91479 10.576 7.49898 10.5034 7.79716 10.4792C8.09534 10.455 9.00204 10.4429 9.81138 10.449ZM8.62475 25.2608C8.26572 25.3092 7.75456 25.406 7.48681 25.4786C7.21906 25.5451 6.8296 25.6843 6.63487 25.7811C6.43405 25.8779 6.14805 26.0715 5.98983 26.2047C5.8377 26.3378 5.61863 26.5858 5.50909 26.7553C5.39956 26.9247 5.25351 27.2393 5.18657 27.4511C5.11355 27.6628 5.02227 28.0803 4.97359 28.3768C4.91273 28.7701 4.90056 29.1392 4.91882 29.714C4.93099 30.198 4.97359 30.6639 5.02835 30.8999C5.07704 31.1117 5.21091 31.4747 5.32045 31.7107C5.46041 32.0011 5.61254 32.2189 5.80727 32.4125C5.98374 32.5941 6.22715 32.7635 6.46448 32.8784C6.67138 32.9752 7.02433 33.1023 7.25557 33.1628C7.48072 33.2173 7.9432 33.2899 8.28398 33.3141C8.70995 33.3504 9.09941 33.3504 9.51321 33.3141C9.8479 33.2899 10.3591 33.2173 10.6512 33.1628C10.9432 33.1084 11.4362 32.9873 11.7465 32.8966C12.0629 32.8119 12.5619 32.6364 12.8601 32.5214C13.1583 32.4004 13.5538 32.225 13.7364 32.1342C13.925 32.0374 14.278 31.8377 14.5275 31.6865L14.9778 31.4142V24.934C14.3571 24.9401 13.0731 25.0006 11.7222 25.0611C10.3712 25.1277 8.9777 25.2184 8.62475 25.2608ZM75.8671 10.7939C76.4574 10.7878 77.1633 10.812 77.4432 10.8423C77.717 10.8725 78.2221 10.9572 78.5629 11.0238C78.9037 11.0964 79.4087 11.2355 79.6765 11.3263C79.9443 11.4231 80.3398 11.5744 80.5528 11.6712C80.7658 11.768 81.1065 11.9495 81.3013 12.0705C81.5021 12.1915 81.8489 12.4336 82.0802 12.6151C82.3053 12.7905 82.6461 13.0931 82.8287 13.2867C83.0173 13.4803 83.2729 13.7768 83.4068 13.9523C83.5346 14.1217 83.7415 14.4181 83.8632 14.6178C83.9849 14.8175 84.1979 15.2108 84.3317 15.4951C84.4656 15.7735 84.6482 16.2273 84.7334 16.4935C84.8246 16.7658 84.9464 17.1591 85.0011 17.3708C85.0559 17.5826 85.1411 18.0243 85.2019 18.345C85.2567 18.6717 85.3297 19.2162 85.3662 19.5551C85.4088 19.9665 85.421 20.8257 85.4027 22.1508C85.3784 23.8691 85.3662 24.1596 85.2871 24.3411C85.2384 24.45 85.1472 24.6013 85.0863 24.6678C85.0255 24.7344 84.9098 24.8191 84.8307 24.8614C84.709 24.9219 83.5589 24.934 70.1409 24.928L70.1774 26.1018C70.1956 26.7432 70.2504 27.5116 70.293 27.8141C70.3417 28.1106 70.4329 28.5704 70.4999 28.8427C70.5668 29.1089 70.7007 29.5385 70.792 29.7926C70.8893 30.0468 71.0841 30.4522 71.2301 30.6881C71.3701 30.9241 71.6257 31.269 71.8021 31.4565C71.9725 31.6441 72.2403 31.8922 72.3924 32.0132C72.5506 32.1282 72.8488 32.3218 73.0618 32.4367C73.2748 32.5456 73.6947 32.7211 73.9928 32.824C74.291 32.9208 74.8144 33.0539 75.1551 33.1144C75.6967 33.2173 75.9584 33.2294 77.1694 33.2294C78.3499 33.2354 78.6724 33.2173 79.2627 33.1265C79.6461 33.066 80.3702 32.9208 80.8631 32.8058C81.3621 32.6909 82.1289 32.5275 82.5731 32.4367C83.279 32.2976 83.4007 32.2855 83.6015 32.3399C83.7658 32.3823 83.9119 32.473 84.0762 32.6364C84.2465 32.8119 84.3378 32.9571 84.3926 33.1628C84.4413 33.3141 84.5508 33.7316 84.6421 34.0885C84.7334 34.4395 84.8186 34.8691 84.8307 35.0385C84.849 35.2563 84.8368 35.3955 84.7821 35.5044C84.7395 35.5891 84.6238 35.7343 84.5265 35.8311C84.4291 35.9279 84.1918 36.0852 83.991 36.176C83.7901 36.2667 83.3764 36.4362 83.0599 36.5511C82.7496 36.6721 82.2384 36.8355 81.922 36.9142C81.6116 36.9989 81.0883 37.1138 80.7597 37.1743C80.4372 37.2288 79.8773 37.3135 79.5244 37.3558C79.1653 37.3982 78.4899 37.4527 78.0213 37.4769C77.5527 37.5011 76.7616 37.5011 76.2687 37.4769C75.7697 37.4587 75.0821 37.3982 74.7413 37.3558C74.4006 37.3074 73.8529 37.2106 73.5243 37.138C73.2018 37.0654 72.6906 36.9263 72.3924 36.8295C72.0942 36.7266 71.6378 36.5572 71.3823 36.4422C71.1267 36.3333 70.7068 36.1215 70.4512 35.9763C70.1956 35.8311 69.8001 35.5709 69.5749 35.4015C69.3437 35.2382 68.9421 34.8872 68.6743 34.6331C68.4126 34.3729 68.0475 33.9796 67.871 33.7497C67.6885 33.5258 67.4207 33.1447 67.2686 32.9026C67.1226 32.6606 66.8609 32.1766 66.6905 31.8256C66.5201 31.4686 66.2706 30.8454 66.1367 30.434C66.0029 30.0226 65.8325 29.4236 65.7595 29.0968C65.6864 28.7701 65.5769 28.1832 65.5221 27.7839C65.4674 27.3906 65.3883 26.719 65.3578 26.2954C65.3213 25.7993 65.3091 24.9461 65.3274 23.9296C65.3396 22.9676 65.3883 22.054 65.4369 21.6365C65.4795 21.2553 65.5769 20.62 65.6499 20.2267C65.7229 19.8274 65.8568 19.2041 65.9542 18.8351C66.0516 18.466 66.2159 17.9214 66.3193 17.6249C66.4228 17.3285 66.654 16.7839 66.8305 16.4209C67.0069 16.0518 67.2686 15.5557 67.4146 15.3136C67.5607 15.0716 67.8102 14.7025 67.9684 14.4908C68.1327 14.279 68.4066 13.9402 68.583 13.7465C68.7656 13.5469 69.1307 13.202 69.3985 12.9781C69.6662 12.7482 70.0678 12.4457 70.2991 12.3004C70.5242 12.1492 70.9806 11.9011 71.3031 11.7438C71.6317 11.5865 72.1429 11.3808 72.4411 11.284C72.7393 11.1871 73.2261 11.0601 73.5243 10.9996C73.8225 10.9391 74.2302 10.8665 74.431 10.8423C74.6318 10.8181 75.2768 10.7939 75.8671 10.7939ZM73.9685 14.5392C73.7677 14.5997 73.4513 14.7328 73.2687 14.8235C73.0861 14.9143 72.7697 15.12 72.5689 15.2713C72.3742 15.4286 72.1003 15.6827 71.9725 15.834C71.8447 15.9852 71.6561 16.2273 71.5648 16.3664C71.4674 16.5056 71.291 16.8202 71.1693 17.0622C71.0537 17.3043 70.8711 17.752 70.7737 18.0666C70.6703 18.3752 70.5425 18.8714 70.4877 19.1678C70.4269 19.4643 70.3538 19.8939 70.3234 20.1238C70.293 20.3477 70.2504 20.8257 70.2321 21.1887L70.1956 21.8482L80.9179 21.8422C80.9666 21.6244 80.9727 20.9709 80.9544 20.2509C80.9361 19.3554 80.8996 18.7867 80.8388 18.4478C80.7962 18.1816 80.6684 17.7097 80.5649 17.395C80.4615 17.0864 80.2668 16.6448 80.139 16.4209C79.9868 16.1426 79.7678 15.8642 79.4696 15.5678C79.1836 15.2834 78.8976 15.0595 78.642 14.9143C78.429 14.7993 78.0821 14.642 77.8692 14.5694C77.6562 14.5029 77.2728 14.406 77.0172 14.3637C76.7251 14.3153 76.2687 14.285 75.8002 14.285C75.3864 14.2911 74.8874 14.3213 74.6926 14.3576C74.4918 14.3939 74.1632 14.4726 73.9685 14.5392ZM102.101 11.7377C102.575 11.7438 103.093 11.7801 103.269 11.8164C103.44 11.8467 103.64 11.9072 103.719 11.9495C103.799 11.9858 103.908 12.1129 103.963 12.2278C104.018 12.3368 104.066 12.5122 104.066 12.6151C104.066 12.7119 103.975 13.3653 103.865 14.0672C103.732 14.9264 103.64 15.3923 103.573 15.5072C103.513 15.6101 103.385 15.719 103.239 15.7856C103.007 15.8884 103.007 15.8884 102.338 15.7977C101.863 15.7372 101.504 15.719 101.121 15.7372C100.811 15.7553 100.415 15.8158 100.19 15.8763C99.977 15.9368 99.6301 16.07 99.4171 16.1668C99.2042 16.2636 98.9121 16.4209 98.7721 16.5056C98.6261 16.5964 98.3279 16.8142 98.0966 16.9896C97.8715 17.1651 97.5551 17.4434 97.3968 17.6068C97.2325 17.7762 96.9952 18.0424 96.624 18.5023V27.1425C96.624 33.5198 96.6118 35.8553 96.5632 36.055C96.5266 36.2425 96.4475 36.3878 96.3137 36.533C96.192 36.66 96.0398 36.7629 95.8999 36.8052C95.7295 36.8537 95.2852 36.8658 92.6138 36.8416L92.413 36.7084C92.2974 36.6358 92.1635 36.4846 92.1026 36.3696C91.9992 36.1699 91.9992 36.055 91.987 24.6497C91.9809 18.3087 91.9809 13.0507 91.9992 12.96C92.0175 12.8632 92.1087 12.6998 92.2183 12.5848C92.3278 12.4699 92.4982 12.3489 92.5955 12.3126C92.7173 12.2702 93.2284 12.252 94.196 12.252C95.4252 12.252 95.6504 12.2641 95.8633 12.3428C96.0155 12.3973 96.1554 12.4941 96.2345 12.5969C96.3015 12.6937 96.3806 12.8571 96.411 12.9721C96.4475 13.087 96.4719 13.3896 96.4719 13.6558C96.4719 13.916 96.484 14.164 96.4962 14.2064C96.5145 14.2608 96.6909 14.1217 97.1047 13.7344C97.4212 13.438 97.8958 13.0507 98.1514 12.8813C98.407 12.7119 98.7782 12.4941 98.979 12.3912C99.1737 12.2944 99.5693 12.1371 99.8553 12.0403C100.141 11.9495 100.567 11.8346 100.811 11.7922C101.121 11.7377 101.498 11.7196 102.101 11.7377ZM134.919 12.1371C136.416 12.1492 136.507 12.1552 136.726 12.2581C136.854 12.3247 137.03 12.4517 137.115 12.5485C137.201 12.6514 138.387 14.4242 139.75 16.4874C141.113 18.5567 142.245 20.2448 142.264 20.2388C142.282 20.2327 143.402 18.5567 144.752 16.5237C146.097 14.4847 147.272 12.724 147.351 12.6151C147.436 12.5062 147.619 12.3549 148.014 12.1492L149.59 12.131C150.886 12.1189 151.209 12.131 151.373 12.1915C151.489 12.2339 151.647 12.3428 151.726 12.4275C151.842 12.5546 151.866 12.6332 151.866 12.845C151.866 12.9842 151.836 13.1657 151.793 13.2443C151.757 13.323 150.168 15.7674 148.276 18.6838C146.377 21.5941 144.819 24.0022 144.801 24.0325C144.789 24.0567 146.493 26.6766 148.586 29.841C150.686 33.0115 152.414 35.6556 152.444 35.7222C152.469 35.7827 152.487 35.9703 152.487 36.1336C152.487 36.3333 152.456 36.4664 152.396 36.5511C152.347 36.6237 152.231 36.7084 152.14 36.7447C152.012 36.7992 151.556 36.8113 150.302 36.8113C149.231 36.8113 148.562 36.7931 148.428 36.7568C148.318 36.7205 148.136 36.6419 148.032 36.5753C147.886 36.4846 147.661 36.1881 147.187 35.462C146.828 34.9175 145.586 33.0115 144.424 31.2327C143.268 29.4478 142.294 27.9835 142.27 27.9775C142.251 27.9714 141.022 29.8229 139.55 32.0919C137.998 34.4818 136.781 36.3091 136.653 36.4301C136.537 36.5451 136.33 36.6721 136.184 36.7266C135.959 36.8052 135.71 36.8113 134.261 36.8113C132.996 36.8113 132.552 36.7992 132.424 36.7447C132.332 36.7084 132.205 36.6116 132.138 36.5269C132.053 36.418 132.022 36.3091 132.022 36.1336C132.022 35.9945 132.053 35.813 132.089 35.7222C132.132 35.6254 133.866 32.9752 135.953 29.8168C138.04 26.6645 139.744 24.0749 139.738 24.0567C139.738 24.0446 138.193 21.6728 136.312 18.7867C134.426 15.9005 132.831 13.4319 132.764 13.3048C132.698 13.1778 132.643 12.9902 132.643 12.8813C132.643 12.7784 132.673 12.6272 132.716 12.5485C132.752 12.4699 132.831 12.3731 132.88 12.3307C132.935 12.2883 133.057 12.2218 133.16 12.1855C133.294 12.1431 133.769 12.125 134.919 12.1371ZM108.35 12.2278H110.279C112.178 12.2278 112.208 12.2278 112.409 12.3428C112.525 12.4033 112.665 12.5304 112.72 12.6151C112.78 12.7058 114.186 16.6811 115.847 21.4489C117.831 27.1364 118.884 30.0891 118.908 30.0347C118.933 29.9863 120.332 26.126 122.03 21.461C123.722 16.79 125.152 12.8813 125.194 12.7663C125.243 12.6514 125.377 12.4941 125.687 12.252L127.422 12.2399C128.742 12.2278 129.192 12.2399 129.308 12.2883C129.393 12.3247 129.485 12.4215 129.521 12.5122C129.564 12.6151 129.57 12.7361 129.539 12.8934C129.521 13.0205 127.263 19.0952 124.531 26.3983C121.799 33.6953 119.444 39.9455 119.298 40.2843C119.158 40.6232 118.927 41.1254 118.787 41.4037C118.647 41.682 118.397 42.1418 118.221 42.4323C118.05 42.7227 117.764 43.1583 117.588 43.3943C117.411 43.6363 117.04 44.072 116.754 44.3685C116.468 44.6589 116.036 45.0522 115.799 45.2337C115.555 45.4152 115.056 45.7117 114.685 45.8932C114.314 46.0747 113.827 46.2804 113.602 46.353C113.377 46.4257 112.908 46.5406 112.567 46.6132C112.227 46.6798 111.642 46.7645 111.277 46.7947C110.864 46.831 110.164 46.8492 109.47 46.831C108.746 46.8129 108.162 46.7705 107.864 46.7161C107.541 46.6556 107.365 46.5951 107.279 46.5164C107.212 46.4559 107.127 46.2804 107.079 46.1231C107.018 45.9053 107.005 45.7238 107.036 45.3244C107.054 45.0401 107.103 44.5923 107.139 44.3201C107.182 44.0538 107.249 43.7271 107.298 43.6C107.34 43.473 107.444 43.3096 107.517 43.231C107.596 43.1523 107.73 43.0736 107.815 43.0555C107.9 43.0434 108.35 43.0676 108.819 43.116C109.391 43.1765 109.89 43.1946 110.322 43.1765C110.675 43.1583 111.21 43.0978 111.509 43.0373C111.807 42.9768 112.239 42.8498 112.464 42.753C112.689 42.6501 113.006 42.4988 113.158 42.4081C113.316 42.3173 113.626 42.0571 113.858 41.8272C114.089 41.6033 114.399 41.2343 114.551 41.0043C114.697 40.7805 114.922 40.3872 115.044 40.1331C115.166 39.8789 115.598 38.8564 116.006 37.8701C116.407 36.8779 116.742 36.0308 116.742 35.9884C116.748 35.9461 114.789 30.7607 112.397 24.4681C108.752 14.884 108.046 12.9842 108.052 12.7724C108.052 12.5727 108.083 12.5001 108.198 12.3791L108.35 12.2278Z" fill="#818B94"/>
</svg>
