<svg width="145" height="29" viewBox="0 0 145 29" fill="none" xmlns="http://www.w3.org/2000/svg">
<g clip-path="url(#clip0_401_361)">
<path d="M12.7295 6.63068C12.6495 6.52512 12.5584 6.46973 12.4572 6.46973C12.3737 6.46973 12.2974 6.50714 12.2484 6.53846C11.4793 7.14253 10.4269 9.70149 9.56445 13.0733L10.328 13.082C11.8357 13.0991 13.3927 13.1168 14.9318 13.1406C14.5261 11.5961 14.1427 10.2722 13.7912 9.20356C13.2776 7.64162 12.9305 6.94243 12.7295 6.63068Z" fill="#818B94"/>
<path fill-rule="evenodd" clip-rule="evenodd" d="M28.884 14.5714C28.884 22.5473 22.4182 29.0134 14.442 29.0134C6.46584 29.0134 0 22.5473 0 14.5714C0 6.59523 6.46584 0.129395 14.442 0.129395C22.4182 0.129395 28.884 6.59523 28.884 14.5714ZM25.1088 14.2411C25.1088 13.8702 24.8475 13.561 24.4954 13.4906C24.4934 13.4903 24.4914 13.4897 24.489 13.4891C24.485 13.4885 24.4809 13.4871 24.4769 13.4865L24.4627 13.4851C24.4252 13.479 24.3873 13.4752 24.3484 13.4746L24.2472 13.465C21.8283 13.2919 19.3398 13.2238 17.0053 13.1771L17.0007 13.16C15.8644 8.89812 14.4452 4.54087 12.5315 4.54087C10.7483 4.54899 9.1408 7.41188 7.75257 13.0518C6.77179 13.0393 5.87772 13.0257 5.03469 13.0112C4.98684 13.0103 4.94392 13.01 4.90564 13.01C4.72584 13.01 4.63797 13.0176 4.59447 13.0234C4.11974 13.1075 3.77522 13.5216 3.77522 14.0085C3.77522 14.505 4.14584 14.9307 4.62869 15.0003L4.63855 15.0105H7.29785C7.05106 16.1388 6.83472 17.2548 6.65405 18.3298L6.57488 18.8031L6.57401 18.8257C6.57575 19.1908 6.87416 19.4878 7.23898 19.4878C7.4704 19.4878 7.68007 19.3671 7.79984 19.1792L7.81869 19.1943L9.12601 15.0105H15.4231C15.9042 16.8282 16.4033 18.7051 17.0627 20.4665C17.4154 21.4084 18.241 23.6145 19.6208 23.6255H19.6365C21.772 23.6255 22.6043 20.1759 23.1556 17.8925C23.2739 17.4012 23.3763 16.9769 23.4729 16.6652L23.5115 16.5364H23.5112C23.5204 16.5063 23.5254 16.4744 23.5254 16.441C23.5254 16.2583 23.3772 16.1101 23.1945 16.1101C23.0527 16.1101 22.932 16.1992 22.8848 16.3244L22.8842 16.3242L22.8378 16.4523C22.6565 16.954 22.4889 17.4285 22.3404 17.849L22.3291 17.8806C21.4049 20.4984 20.9829 21.6932 20.1564 21.6935L20.1361 21.6932L20.1245 21.695L20.104 21.6944C19.046 21.6944 18.0499 17.3937 17.6749 15.7749C17.61 15.4945 17.5505 15.2369 17.4957 15.0105H24.3365C24.465 15.0105 24.5859 14.9783 24.692 14.9226C24.6929 14.9223 24.6935 14.922 24.6941 14.9217C24.7048 14.9162 24.715 14.9098 24.7254 14.9037C24.737 14.8971 24.7483 14.8904 24.7593 14.8831C24.7648 14.8797 24.7701 14.8759 24.7753 14.8721C24.7918 14.8608 24.8078 14.8489 24.8234 14.8362C24.8246 14.8353 24.8254 14.8344 24.8266 14.8336C24.9989 14.6923 25.1088 14.4783 25.1088 14.2411ZM36.8984 18.1848L35.7535 21.0143H32.4275L38.7559 6.24086H41.6933L47.9999 21.0143H44.6954L43.5507 18.1848H36.8984ZM40.203 9.97722L38.0431 15.3553H42.4061L40.203 9.97722ZM66.7476 15.3338V21.0143H63.7455V15.5931C63.7455 13.9514 62.9462 13.066 61.5423 13.066C60.9159 13.066 60.2249 13.3467 59.5985 14.2106C59.6417 14.5778 59.6849 14.9449 59.6849 15.3338V21.0143H56.6825V15.5931C56.6825 13.9514 55.8836 13.066 54.4579 13.066C53.8747 13.066 53.2269 13.4114 52.6222 14.2324V21.0143H49.6199V10.6686H52.6222V11.295C53.2701 10.69 53.9612 10.3446 55.1708 10.3446C56.4882 10.3446 57.6546 10.8629 58.4753 11.8132C59.577 10.7982 60.6135 10.3446 62.2334 10.3446C64.7605 10.3446 66.7476 12.31 66.7476 15.3338ZM79.9443 15.852C79.9443 18.8544 77.655 21.2301 74.8038 21.2301C73.6377 21.2301 72.6656 20.9279 71.8663 20.4094V26.0035H68.8643V10.6686H71.8663V11.2732C72.6656 10.7547 73.6377 10.4525 74.8038 10.4525C77.655 10.4525 79.9443 12.8067 79.9443 15.852ZM76.9854 15.852C76.9854 14.3185 75.8623 12.9796 74.307 12.9796C73.4216 12.9796 72.536 13.2818 71.8663 14.1892V17.4937C72.536 18.3791 73.4216 18.6816 74.307 18.6816C75.8623 18.6816 76.9854 17.3641 76.9854 15.852ZM84.6313 21.0143H81.6289V5.67912H84.6313V21.0143ZM90.6569 21.0143H87.6548V10.6686H90.6569V21.0143ZM87.3309 7.01835C87.3309 6.00306 88.1298 5.24731 89.1451 5.24731C90.1387 5.24731 90.9379 6.00306 90.9379 7.01835C90.9379 8.01189 90.1387 8.74617 89.1451 8.74617C88.1298 8.74617 87.3309 8.01189 87.3309 7.01835ZM101.564 20.8629C100.312 21.2518 99.7498 21.3383 98.778 21.3383C96.2724 21.3383 94.631 19.5672 94.631 16.8888V13.1956H92.4497V10.6686H94.631V6.97514H97.6117V10.6686H101.348V13.1956H97.6117V16.8673C97.6117 18.0337 98.3245 18.5737 99.4259 18.5737C99.9874 18.5737 100.592 18.4441 101.175 18.293L101.564 20.8629ZM113.616 21.0143H110.614V20.2798C109.772 20.9494 108.821 21.3383 107.655 21.3383C104.933 21.3383 103.119 19.3726 103.119 16.3706V10.6686H106.121V16.0898C106.121 17.7312 106.942 18.6169 108.346 18.6169C109.102 18.6169 109.923 18.1633 110.614 17.3209V10.6686H113.616V21.0143ZM126.359 21.0143H123.357V20.4094C122.558 20.9279 121.586 21.2301 120.42 21.2301C117.569 21.2301 115.258 18.8759 115.258 15.8306C115.258 12.8282 117.569 10.4525 120.42 10.4525C121.586 10.4525 122.558 10.7547 123.357 11.2732V5.67912H126.359V21.0143ZM123.357 17.4937V14.1892C122.688 13.3035 121.802 13.001 120.917 13.001C119.34 13.001 118.238 14.3185 118.238 15.8306C118.238 17.3641 119.34 18.7033 120.917 18.7033C121.802 18.7033 122.688 18.4008 123.357 17.4937ZM138.541 16.6081H130.917C131.154 17.8177 131.953 18.768 133.595 18.768C134.437 18.768 135.021 18.5087 135.344 17.9905H138.476C137.915 19.9776 135.971 21.3383 133.53 21.3383C130.204 21.3383 127.958 18.9408 127.958 15.852C127.958 12.6557 130.182 10.3444 133.444 10.3444C136.403 10.3444 138.606 12.4396 138.606 15.636C138.606 16.0681 138.584 16.3056 138.541 16.6081ZM130.938 14.837H135.625C135.452 13.541 134.675 12.8282 133.465 12.8282C132.018 12.8282 131.219 13.6707 130.938 14.837Z" fill="#818B94"/>
</g>
<defs>
<clipPath id="clip0_401_361">
<rect width="145" height="29" fill="white"/>
</clipPath>
</defs>
</svg>
