<svg xmlns="http://www.w3.org/2000/svg" width="107" height="16" viewBox="0 0 107 16"><g fill="none" fill-rule="evenodd"><g><g transform="translate(-50 -35) translate(50 35)"><circle cx="99" cy="8" r="8" fill="#2DADC6"></circle><path fill="#FFF" d="M4.76 13.771c2.427 0 4.538-1.22 4.538-3.929 0-1.373-.685-2.747-2.13-3.185v-.038c1-.554 1.593-1.64 1.593-2.9 0-2.231-1.686-3.49-4.075-3.49H0V13.77h4.76zm-.055-8.01H2.389V2.345h2.279c1.092 0 1.667.706 1.667 1.679 0 .972-.593 1.735-1.63 1.735zm.24 5.893H2.39v-3.91h2.556c1.204 0 1.908.82 1.908 1.945 0 1.145-.685 1.965-1.908 1.965zm9.354 2.212c.315 0 .574-.038.741-.057v-2.117c-.13.02-.26.02-.352.02-.611 0-.963-.268-.963-1.336V.229h-2.334v10.51c0 2.784 1.612 3.127 2.908 3.127zm5.63.134c1.612 0 2.835-1.049 3.28-2.04h.036s-.055.304-.055.667v1.144h2.26V4.044h-2.334v4.463c0 1.736-.945 3.28-2.649 3.28-1.167 0-1.463-.8-1.463-1.983v-5.76H16.65V10.3c0 2.651 1.241 3.7 3.279 3.7zm12.577 0c1.353 0 2.834-.515 3.798-1.392l-.927-1.736c-.759.63-1.74 1.068-2.704 1.068-1.426 0-2.686-.877-2.834-2.575h6.502c.037-.305.074-.63.074-.934 0-2.575-1.482-4.616-4.186-4.616-2.834 0-4.816 2.098-4.816 5.092 0 2.766 1.963 5.093 5.093 5.093zm1.556-6.294h-4.167c.222-1.24 1.074-2.06 2.278-2.06 1.056 0 1.87.763 1.89 2.06zM44.732 14c3.981 0 6.797-3.109 6.797-7.095C51.529 3.033 48.713 0 44.73 0s-6.798 3.033-6.798 6.905c0 3.986 2.816 7.095 6.798 7.095zm0-2.25c-2.52 0-4.335-2.099-4.335-4.845 0-2.633 1.815-4.654 4.334-4.654 2.52 0 4.334 2.021 4.334 4.654 0 2.746-1.815 4.844-4.334 4.844zM58.16 14c1.519 0 3-.61 3.89-1.583l-.908-1.717c-.704.706-1.778 1.24-2.779 1.24-1.815 0-2.945-1.411-2.945-3.052 0-1.66 1.13-3.013 2.871-3.013.926 0 1.853.438 2.445 1.049l1.056-1.66c-.908-1.01-2.352-1.45-3.63-1.45-3.13 0-5.13 2.328-5.13 5.093 0 2.823 2 5.093 5.13 5.093zm10.113 0c1.352 0 2.834-.515 3.797-1.392l-.926-1.736c-.76.63-1.741 1.068-2.704 1.068-1.427 0-2.686-.877-2.834-2.575h6.501c.037-.305.074-.63.074-.934 0-2.575-1.482-4.616-4.186-4.616-2.834 0-4.816 2.098-4.816 5.092 0 2.766 1.964 5.093 5.094 5.093zm1.556-6.294H65.66c.222-1.24 1.075-2.06 2.278-2.06 1.056 0 1.871.763 1.89 2.06zM76.534 14c1.278 0 2.408-.725 2.982-1.755h.037s-.056.305-.056.706v.82h2.186V7.687c0-2.46-1.463-3.872-3.927-3.872-1.407 0-2.926.553-3.704 1.201l.87 1.736c.76-.534 1.704-.935 2.63-.935.982 0 1.779.44 1.779 1.717v.134h-.408c-2.093 0-5.501.495-5.501 3.414 0 1.774 1.408 2.918 3.112 2.918zm.648-1.85c-.945 0-1.426-.63-1.426-1.278 0-1.373 2-1.545 3.186-1.545h.407v.267c0 1.183-.852 2.556-2.167 2.556zm9.261 1.621V9.213c0-1.755 1.056-3.186 2.723-3.186 1.185 0 1.482.801 1.482 1.984v5.76H93V7.515c0-2.575-1.204-3.7-3.297-3.7-1.908 0-2.964 1.24-3.352 2.06h-.038s.038-.306.038-.687V4.044h-2.26v9.727h2.352z"></path></g></g></g></svg>