<svg width="152" height="47" viewBox="0 0 152 47" fill="none" xmlns="http://www.w3.org/2000/svg">
<path fill-rule="evenodd" clip-rule="evenodd" d="M11.7688 46.9568H15.3007V28.1738H11.7688V46.9568ZM24.7156 46.675H27.8789V34.8242L41.1942 46.9568V28.4556H38.0397V40.1039L24.7156 28.1738V46.675ZM48.416 42.126C50.1378 43.4614 52.2044 44.2333 54.4199 44.2333C56.578 44.2333 58.0918 43.4937 58.0918 41.8604C58.0918 40.437 57.1263 39.8794 55.4356 39.2558L52.6982 38.3093C50.1746 37.4171 48.2554 36.114 48.2554 33.119C48.2554 29.9157 51.1608 28.1738 54.6351 28.1738C56.7637 28.1738 58.7036 28.7065 60.2189 29.6501V32.827C58.6431 31.6678 56.9185 30.8695 54.7029 30.8695C52.7955 30.8695 51.3701 31.5782 51.3701 33.0559C51.3701 34.3913 52.2648 34.9254 53.8406 35.4625L56.8905 36.5278C59.846 37.5624 61.2021 39.1663 61.2021 41.8047C61.2021 45.124 58.2687 46.9568 54.4199 46.9568C51.8904 46.9568 49.7398 46.2524 48.416 45.3632V42.126ZM69.4414 46.9568H72.9718V28.1738H69.4414V46.9568ZM89.5351 44.1178C93.5151 44.1178 95.6422 41.5762 95.6422 37.5643C95.6422 33.523 93.5136 30.9902 89.5351 30.9902H85.5994V44.1178H89.5351ZM82.3862 28.1738H89.6534C95.2475 28.1738 98.8648 31.8424 98.8648 37.5609C98.8648 43.2838 95.2475 46.9568 89.6534 46.9568H82.3862V28.1738ZM116.521 28.1738V30.9869H107.976V35.5065H115.639V38.2873H107.974V44.1144H116.521V46.9568H104.75V28.1738H116.521ZM129.053 36.6786H132.557C134.631 36.6786 135.8 35.5457 135.8 33.8039C135.8 32.062 134.631 30.9277 132.557 30.9277H129.053V36.68V36.6786ZM129.054 39.335V46.9568H125.936V28.1738H132.617C136.426 28.1738 138.89 30.127 138.89 33.8043C138.89 36.949 137.522 38.7554 134.608 39.2191L141.237 46.9568H137.69L131.272 39.3365H129.055L129.054 39.335ZM10.5352 9.67118C11.9164 9.16785 12.9924 7.65788 12.9924 5.58148C12.9924 2.12131 10.5352 0.328125 6.60382 0.328125H0V19.6438H7.21703C11.1484 19.6438 13.6056 17.7244 13.6056 14.1072C13.6056 12.0616 12.3158 10.2684 10.5352 9.67118ZM3.10132 8.44238V3.1582H6.57422C8.75584 3.1582 9.92183 3.94474 9.92183 5.76874C9.92183 7.59274 8.75437 8.44238 6.57422 8.44238H3.10132ZM3.10132 11.148H7.155C9.30714 11.148 10.4731 12.2162 10.4731 13.9786C10.4731 15.7087 9.30567 16.8107 7.15648 16.8107H3.10279V11.1465L3.10132 11.148ZM28.0141 19.9578C32.5291 19.9578 35.5701 17.2519 35.5701 11.9677V0.328125H32.3758V11.5891C32.3758 15.3017 30.8399 17.0332 28.0141 17.0332C25.1883 17.0332 23.6538 15.3017 23.6538 11.5891V0.328125H20.4595V11.9354C20.4595 17.2519 23.53 19.9578 28.0141 19.9578ZM43.0913 18.2561C44.4121 19.2012 46.5627 19.9554 49.0804 19.9554C52.9204 19.9554 55.8376 18.0037 55.8376 14.4819C55.8376 11.6821 54.4873 9.98283 51.5377 8.88227L48.4982 7.74942C46.9312 7.18446 46.0409 6.61804 46.0409 5.20198C46.0409 3.62891 47.4531 2.87465 49.3576 2.87465C51.5687 2.87465 53.2889 3.72282 54.8558 4.95105V1.58332C53.3508 0.578142 51.4153 0.0117188 49.2956 0.0117188C45.8257 0.0117188 42.938 1.868 42.938 5.26508C42.938 8.44204 44.8425 9.82581 47.3602 10.7694L50.0946 11.776C51.7839 12.4364 52.7361 13.0351 52.7361 14.545C52.7361 16.2751 51.2311 17.0617 49.0804 17.0617C46.8693 17.0617 44.8115 16.2428 43.0913 14.8282V18.2561ZM67.2507 0.328125H64.0579V19.6423H67.2507V0.328125ZM76.3639 19.6179H79.4418V7.05241L92.3959 19.9173V0.297886H89.3269V12.6492L76.3639 0V19.6179ZM112.357 0.33017V3.22245H104.064V7.87123H111.5V10.7312H104.064V16.7227H112.357V19.6458H100.933V0.33017H112.357ZM119.793 18.2444C121.113 19.1894 123.263 19.9437 125.782 19.9437C129.62 19.9437 132.539 17.9935 132.539 14.4702C132.539 11.6704 131.187 9.97258 128.239 8.87055L125.198 7.73917C123.631 7.17274 122.741 6.60632 122.741 5.19026C122.741 3.61719 124.153 2.86293 126.057 2.86293C128.269 2.86293 129.989 3.71257 131.556 4.93933V1.57307C130.051 0.566424 128.115 0 125.996 0C122.526 0 119.638 1.85628 119.638 5.25336C119.638 8.43032 121.542 9.8141 124.06 10.7576L126.794 11.7643C128.484 12.4246 129.436 13.0233 129.436 14.5333C129.436 16.2634 127.932 17.0499 125.78 17.0499C123.569 17.0499 121.511 16.2326 119.793 14.8165V18.2444ZM139.082 18.2444C140.403 19.1894 142.554 19.9437 145.071 19.9437C148.911 19.9437 151.828 17.9935 151.828 14.4702C151.828 11.6704 150.477 9.97258 147.529 8.87055L144.488 7.73917C142.922 7.17274 142.03 6.60632 142.03 5.19026C142.03 3.61719 143.444 2.86293 145.347 2.86293C147.558 2.86293 149.28 3.71257 150.845 4.93933V1.57307C149.342 0.566424 147.406 0 145.287 0C141.815 0 138.929 1.85628 138.929 5.25336C138.929 8.43032 140.833 9.8141 143.351 10.7576L146.085 11.7643C147.775 12.4246 148.727 13.0233 148.727 14.5333C148.727 16.2634 147.222 17.0499 145.071 17.0499C142.86 17.0499 140.802 16.2326 139.082 14.8165V18.2444Z" fill="#6F7A83"/>
</svg>
