<svg width="63" height="34" viewBox="0 0 63 34" fill="none" xmlns="http://www.w3.org/2000/svg">
<path fill-rule="evenodd" clip-rule="evenodd" d="M16.6951 0.564453C17.4405 0.564453 18.04 1.14865 18.04 1.89512V16.1268C18.04 16.8733 17.4405 17.4737 16.6951 17.4737C15.9498 17.4737 15.3503 16.8733 15.3503 16.1268V1.89512C15.3503 1.16488 15.9498 0.564453 16.6951 0.564453ZM46.1519 0.564453C46.881 0.564453 47.4805 1.14865 47.4805 1.89512V16.1268C47.4805 16.8733 46.8972 17.4737 46.1519 17.4737C45.4228 17.4737 44.8233 16.8733 44.8233 16.1268V1.89512C44.8233 1.16488 45.4066 0.564453 46.1519 0.564453ZM54.8526 6.942C54.8526 6.21175 54.2531 5.61133 53.5078 5.61133C52.7625 5.61133 52.1792 6.21175 52.1792 6.942V13.4493C52.1792 14.1958 52.7787 14.7962 53.5078 14.7962C54.2694 14.7962 54.8526 14.1958 54.8526 13.4493V6.942ZM62.2086 10.6432C62.2086 9.8967 61.6091 9.3125 60.88 9.3125C60.1347 9.3125 59.5352 9.91292 59.5352 10.6432V13.4506C59.5352 14.197 60.1347 14.7975 60.88 14.7975C61.6091 14.7975 62.2086 14.197 62.2086 13.4506V10.6432ZM40.1245 6.942C40.1245 6.21175 39.525 5.61133 38.7959 5.61133C38.0668 5.61133 37.4673 6.21175 37.4673 6.942V13.4493C37.4673 14.1958 38.0668 14.7962 38.7959 14.7962C39.5412 14.7962 40.1245 14.1958 40.1245 13.4493V6.942ZM31.4234 9.3125C32.1526 9.3125 32.7521 9.8967 32.7521 10.6432V13.4506C32.7521 14.197 32.1526 14.7975 31.4234 14.7975C30.6781 14.7975 30.0786 14.197 30.0786 13.4506V10.6432C30.0786 9.91292 30.6781 9.3125 31.4234 9.3125ZM25.396 6.942C25.396 6.21175 24.7964 5.61133 24.0511 5.61133C23.3058 5.61133 22.7063 6.21175 22.7063 6.942V13.4493C22.7063 14.1958 23.3058 14.7962 24.0511 14.7962C24.7964 14.7962 25.396 14.1958 25.396 13.4493V6.942ZM10.6677 6.942C10.6677 6.21175 10.0682 5.61133 9.32285 5.61133C8.57753 5.61133 7.97803 6.21175 7.97803 6.942V13.4493C7.97803 14.1958 8.57753 14.7962 9.32285 14.7962C10.0682 14.7962 10.6677 14.1958 10.6677 13.4493V6.942ZM1.9669 9.3125C2.71222 9.3125 3.31172 9.8967 3.31172 10.6432V13.4506C3.31172 14.197 2.71222 14.7975 1.9669 14.7975C1.22157 14.7975 0.62207 14.197 0.62207 13.4506V10.6432C0.62207 9.91292 1.22157 9.3125 1.9669 9.3125ZM30.986 22.2939C30.9786 22.2924 30.9619 22.2885 30.9367 22.2824C30.6819 22.2217 29.555 21.9531 28.3611 21.9531C25.8659 21.9531 24.3752 23.3 24.3752 25.296C24.3752 27.0648 25.6229 27.9574 27.1297 28.428C27.1887 28.4457 27.2585 28.4677 27.332 28.4909L27.332 28.491L27.3323 28.491C27.4604 28.5315 27.5998 28.5755 27.713 28.6065C28.3773 28.8174 28.912 29.1258 28.912 29.6775C28.912 30.2779 28.2963 30.6836 26.9515 30.6836C25.8138 30.6836 24.7211 30.3683 24.4375 30.2865L24.4076 30.2779V32.7445C24.5373 32.777 25.8821 33.0366 27.3241 33.0366C29.3981 33.0366 31.7475 32.1279 31.7475 29.4341C31.7475 28.1359 30.9536 26.9188 29.2037 26.3671L28.4583 26.1236L28.3895 26.1008C27.9427 25.9536 27.2269 25.7176 27.2269 25.1013C27.2269 24.582 27.8102 24.225 28.8958 24.225C29.8356 24.225 30.9698 24.5333 31.0022 24.5496V22.2939H30.986ZM51.0125 30.325C52.6003 30.325 53.7993 29.0592 53.7993 27.5013C53.7993 25.9597 52.6003 24.694 51.0125 24.6777C49.4084 24.6777 48.2256 25.9435 48.2256 27.5013C48.2256 29.0592 49.4084 30.325 51.0125 30.325ZM51.0127 21.9688C47.7235 21.9688 45.3579 24.4516 45.3579 27.5186C45.3579 30.5856 47.7235 33.0685 51.0127 33.0685C54.3018 33.0685 56.6674 30.5856 56.6674 27.5186C56.6674 24.4516 54.3018 21.9688 51.0127 21.9688ZM14.3034 22.3344L14.3295 22.3426V25.2149C14.3174 25.2097 14.2969 25.1992 14.2683 25.1845C14.0282 25.0615 13.2193 24.6469 12.0611 24.6469C10.3112 24.6469 9.09602 25.864 9.09602 27.503C9.09602 29.0933 10.2626 30.3591 12.0611 30.3591C13.3249 30.3591 14.2161 29.856 14.3295 29.7911V32.6634L14.2581 32.684C13.8715 32.7965 12.9899 33.0528 11.8667 33.0528C8.82058 33.0528 6.16333 30.9595 6.16333 27.503C6.16333 24.3061 8.57754 21.9531 11.8667 21.9531C13.0913 21.9531 14.0117 22.2426 14.3034 22.3344ZM42.5063 22.3426L42.4802 22.3344C42.1884 22.2426 41.2681 21.9531 40.0434 21.9531C36.7543 21.9531 34.3401 24.3061 34.3401 27.503C34.3401 30.9595 37.0135 33.0528 40.0434 33.0528C41.1667 33.0528 42.0482 32.7965 42.4349 32.684L42.5063 32.6634V29.7911C42.3928 29.856 41.5017 30.3591 40.2379 30.3591C38.4394 30.3591 37.289 29.0933 37.289 27.503C37.289 25.864 38.5042 24.6469 40.2379 24.6469C41.396 24.6469 42.2049 25.0615 42.445 25.1845C42.4536 25.1889 42.4615 25.193 42.4687 25.1966C42.4852 25.205 42.4978 25.2113 42.5063 25.2149V22.3426ZM18.0398 32.8724H20.7456V22.1621H18.0398V32.8724Z" fill="#818B94"/>
</svg>
