<svg width="40" height="40" viewBox="0 0 40 40" fill="none" xmlns="http://www.w3.org/2000/svg">
<path d="M19.6065 39.213C30.4348 39.213 39.213 30.4348 39.213 19.6065C39.213 8.77812 30.4348 0 19.6065 0C8.77812 0 0 8.77812 0 19.6065C0 30.4348 8.77812 39.213 19.6065 39.213Z" fill="#818B94"/>
<path d="M19.1561 21.5409C28.7827 22.3358 32.492 24.9853 32.3154 28.6063C32.1388 30.5493 30.2841 32.404 27.8995 32.5806C25.0734 32.7573 23.7486 31.6091 22.9538 30.3727C22.2472 29.2246 21.4524 28.0764 20.6575 26.84C20.4809 26.4867 20.1276 26.7517 19.8626 26.9283C19.2444 27.4582 18.7145 28.0764 18.1846 28.6063C17.8313 28.9596 17.9197 29.2246 18.008 29.4895C18.5379 30.726 19.0678 31.9624 19.5977 33.1105C20.4809 33.6404 24.4552 34.347 27.3696 34.082C29.4009 33.9054 31.8738 33.1105 33.9934 31.6091C36.0247 30.0194 37.5261 27.8998 37.7911 24.4554C37.8794 22.3358 37.5261 20.1279 35.6715 18.0966C33.8168 16.0653 30.6374 14.3872 24.1902 13.9456C24.5435 12.8858 24.8084 11.9143 25.1617 10.9429C29.0477 11.1195 32.492 11.3844 35.4065 11.7377C35.6715 10.5896 35.7598 9.52977 36.0247 8.46996L35.2299 7.49847C33.7285 7.32183 32.3154 6.96856 30.7257 6.79193C28.6944 6.52698 26.5748 6.35034 24.2785 6.26202C22.7771 10.5013 21.0108 15.8886 19.1561 21.5409ZM16.5949 5.02558C15.8884 5.02558 14.9169 5.20222 13.3272 5.55549C9.88278 6.52698 5.64354 8.91155 5.20195 12.8858C5.11363 13.5041 5.11363 14.2106 5.02532 14.8288C4.05382 14.9171 3.17065 15.0055 2.28747 15.0938C2.19916 15.8886 2.19916 16.5952 2.11084 17.39C2.99401 17.3017 3.87719 17.3017 4.84868 17.2134C4.67205 21.3643 4.84868 25.5152 5.20195 29.4012C5.29027 30.0194 5.29027 30.5493 5.29027 30.9026C5.20195 31.2559 4.58373 31.4325 3.70055 31.4325L4.84868 32.8456C8.20474 33.4638 12.444 33.9054 16.9482 33.9937C16.9482 33.5521 16.9482 33.1105 16.9482 32.6689C14.2986 32.4923 13.0622 32.139 12.8856 31.6091C12.7089 31.1675 12.7089 30.5493 12.6206 29.9311C12.444 25.8685 12.3557 21.4526 12.444 16.9484C13.9454 16.9484 15.4468 16.9484 16.9482 16.8601C17.743 16.5069 18.4496 16.1536 19.1561 15.8003C19.1561 15.2704 19.1561 14.7405 19.1561 14.2989C16.8599 14.2989 14.6519 14.3872 12.444 14.3872C12.5323 12.5326 12.6206 10.7662 12.7089 9.08818C12.7973 7.94006 13.5921 7.1452 14.2986 7.1452C15.5351 7.05688 16.6832 7.58679 17.8313 8.11669C18.4496 8.38164 19.0678 8.73491 19.686 8.99987C19.951 9.08818 20.3042 9.1765 20.5692 8.91155C20.9225 8.46996 21.2757 8.02837 21.629 7.6751C21.8056 7.41015 21.7173 7.23352 21.629 7.1452C20.8341 6.52698 20.1276 5.99707 19.3327 5.37885C18.8912 5.02558 18.0963 5.02558 17.3898 5.02558C17.1248 4.93726 16.8599 5.02558 16.5949 5.02558Z" fill="white"/>
</svg>
