<svg width="150" height="33" viewBox="0 0 150 33" fill="none" xmlns="http://www.w3.org/2000/svg">
<g id="Microsoft_logo_(2012)">
<path id="Shape" fill-rule="evenodd" clip-rule="evenodd" d="M150 11.8228V14.4806H146.696V20.9883C146.696 21.8329 146.845 22.4041 147.144 22.7519C147.466 23.1245 147.914 23.2735 148.559 23.2735C148.733 23.2735 148.957 23.2487 149.205 23.1742C149.503 23.0996 149.677 23.0003 149.876 22.8761L150 22.7767V25.4345L149.975 25.4593C149.776 25.5587 149.429 25.6829 148.957 25.7822C148.51 25.8567 148.038 25.9313 147.591 25.9313C144.858 25.9313 143.492 24.4658 143.492 21.5596V14.4806H138.624V25.5835H135.37V14.4558H133.11V11.8228H135.37V9.91026C135.37 8.94155 135.593 8.09703 136.016 7.35187C136.438 6.58187 137.009 6.01058 137.779 5.58832C138.549 5.21574 139.394 4.99219 140.363 4.99219C141.133 4.99219 141.729 5.09154 142.176 5.24057L142.25 5.26541V8.07219L142.126 7.99768C141.604 7.77413 141.133 7.67477 140.685 7.67477C140.04 7.67477 139.518 7.87348 139.17 8.2709C138.823 8.66832 138.624 9.28929 138.624 10.0841V11.8228H143.492V8.718L143.567 8.69316L146.647 7.77413L146.746 7.74929V11.8228H150ZM65.7966 6.55817C66.1692 6.21043 66.6163 6.01172 67.1628 6.01172C67.7341 6.01172 68.206 6.21043 68.5289 6.55817C68.9015 6.93075 69.1002 7.37785 69.1002 7.89946C69.1002 8.42108 68.9015 8.86817 68.5289 9.21592C68.1812 9.53882 67.7092 9.73753 67.1628 9.73753C66.6163 9.73753 66.1692 9.56366 65.7966 9.21592C65.4241 8.86817 65.2253 8.42108 65.2253 7.89946C65.2253 7.35301 65.4241 6.90591 65.7966 6.55817ZM52.9554 18.4569L52.0612 20.9905H51.9867C51.8376 20.4192 51.5644 19.5499 51.1173 18.5066L46.3234 6.45983H41.6289V25.6602H44.7337V13.8121C44.7337 13.0669 44.7337 12.2224 44.7089 11.1792C44.6913 10.8088 44.6611 10.501 44.6362 10.247L44.6362 10.2469L44.6362 10.2469L44.6362 10.2469L44.6362 10.2469L44.6362 10.2469L44.6362 10.2469L44.6362 10.2469L44.6362 10.2469L44.6362 10.2468L44.6362 10.2468L44.6362 10.2467C44.626 10.1431 44.6168 10.0484 44.6096 9.9621H44.6841C44.8331 10.7073 45.007 11.2537 45.1312 11.6015L50.8938 25.6105H53.0796L58.7925 11.4773C58.8874 11.2303 58.9824 10.7946 59.0774 10.3589L59.0774 10.3589L59.0774 10.3588C59.1066 10.2247 59.1358 10.0907 59.1651 9.9621H59.2396C59.1651 11.3779 59.1154 12.6447 59.0905 13.4147V25.5857H62.3941V6.41016H57.8734L52.9554 18.4569ZM65.5234 11.8203H68.7525V25.581H65.5234V11.8203ZM80.2032 11.6987C79.6071 11.5745 78.9861 11.5 78.39 11.5C76.9245 11.5 75.5832 11.8229 74.4655 12.4687C73.3477 13.1145 72.4535 14.0087 71.8822 15.1265C71.2861 16.269 70.988 17.5855 70.988 19.1007C70.988 20.4171 71.2861 21.5845 71.8574 22.6526C72.4287 23.6958 73.2235 24.5403 74.2916 25.1116C75.31 25.6829 76.5022 25.981 77.8435 25.981C79.3835 25.981 80.7 25.6581 81.7432 25.062L81.7681 25.0371V22.0565L81.6439 22.1558C81.1719 22.5036 80.6255 22.8016 80.079 22.9755C79.5077 23.1742 78.9861 23.2736 78.539 23.2736C77.2474 23.2736 76.229 22.901 75.5087 22.0813C74.7635 21.2865 74.3909 20.1936 74.3909 18.8274C74.3909 17.4116 74.7635 16.2939 75.5335 15.4742C76.3035 14.6545 77.3219 14.2323 78.5639 14.2323C79.6071 14.2323 80.6751 14.58 81.6439 15.2755L81.7681 15.3748V12.2203L81.7432 12.1955L81.7063 12.1803C81.2934 12.0101 80.8303 11.8193 80.2032 11.6987ZM88.6738 12.3677C89.3196 11.846 90.0648 11.5977 90.8596 11.5977C91.4061 11.5977 91.8531 11.6722 92.0767 11.8212L92.1512 11.846V15.0751L92.027 14.9757C91.8531 14.8515 91.6048 14.7522 91.257 14.6528C91.1328 14.6363 91.0169 14.6169 90.9065 14.5985C90.6857 14.5617 90.487 14.5286 90.2883 14.5286C89.4438 14.5286 88.7483 14.9012 88.2019 15.6464C87.6554 16.3667 87.407 17.3602 87.407 18.5525V25.5819H84.178V11.8212H87.407V14.2306H87.4319C87.7548 13.4606 88.1273 12.8148 88.6738 12.3677ZM99.6513 11.5254C97.391 11.5254 95.5777 12.196 94.311 13.5125C93.0193 14.8289 92.3984 16.6422 92.3984 18.9273C92.3984 21.0635 93.0442 22.8022 94.2861 24.069C95.5281 25.3109 97.2171 25.9567 99.3284 25.9567C101.539 25.9567 103.303 25.2861 104.569 23.9448C105.861 22.6035 106.482 20.8151 106.482 18.6044C106.482 16.4186 105.886 14.6799 104.669 13.4131C103.501 12.1464 101.787 11.5254 99.6513 11.5254ZM99.5276 23.2517C100.695 23.2517 101.639 22.8791 102.235 22.1091C102.856 21.3391 103.129 20.1717 103.179 18.6814C103.179 17.2159 102.831 16.0981 102.185 15.3281C101.54 14.5581 100.645 14.1855 99.5028 14.1855C98.3354 14.1855 97.4163 14.583 96.7457 15.3778C96.0999 16.1726 95.7521 17.2904 95.7521 18.7559C95.7521 20.1717 96.075 21.2894 96.7457 22.0594C97.4163 22.8791 98.3602 23.2517 99.5276 23.2517ZM113.686 17.5358C112.668 17.1136 112.022 16.7907 111.724 16.5174C111.476 16.269 111.351 15.9213 111.351 15.4742C111.351 15.1016 111.5 14.729 111.873 14.4806C112.246 14.2323 112.668 14.1081 113.289 14.1081C113.835 14.1081 114.407 14.2074 114.953 14.3565C115.499 14.5055 115.996 14.729 116.394 15.0271L116.518 15.1265V12.0961L116.443 12.0713C116.071 11.9223 115.574 11.7732 114.978 11.649C114.382 11.5497 113.835 11.5 113.388 11.5C111.848 11.5 110.581 11.8726 109.588 12.6923C108.594 13.4623 108.122 14.5055 108.122 15.7226C108.122 16.3684 108.222 16.9397 108.445 17.4116C108.669 17.8836 108.992 18.3307 109.439 18.7032C109.886 19.051 110.532 19.4484 111.426 19.821C112.171 20.1439 112.742 20.3923 113.09 20.591C113.438 20.7897 113.661 21.0132 113.835 21.1871C113.959 21.3858 114.034 21.6342 114.034 21.9571C114.034 22.8761 113.338 23.3232 111.923 23.3232C111.376 23.3232 110.805 23.2239 110.134 23.0003C109.464 22.7768 108.843 22.4539 108.321 22.0813L108.197 21.982V25.1365L108.271 25.1613C108.743 25.3849 109.315 25.5339 110.01 25.7078C110.706 25.832 111.327 25.9313 111.873 25.9313C113.537 25.9313 114.903 25.5587 115.872 24.739C116.866 23.9442 117.387 22.9258 117.387 21.6094C117.387 20.6903 117.139 19.8707 116.592 19.2497C115.872 18.6536 114.978 18.0326 113.686 17.5358ZM120.567 13.5125C121.834 12.196 123.647 11.5254 125.907 11.5254C128.044 11.5254 129.757 12.1464 130.925 13.4131C132.142 14.6799 132.738 16.4186 132.738 18.6044C132.738 20.8151 132.117 22.6035 130.826 23.9448C129.559 25.2861 127.795 25.9567 125.585 25.9567C123.473 25.9567 121.784 25.3109 120.542 24.069C119.3 22.8022 118.655 21.0635 118.655 18.9273C118.655 16.6422 119.3 14.8289 120.567 13.5125ZM128.466 22.1091C127.869 22.8791 126.926 23.2517 125.758 23.2517C124.566 23.2517 123.647 22.8791 122.976 22.0594C122.306 21.2894 121.983 20.1717 121.983 18.7559C121.983 17.2904 122.33 16.1726 122.976 15.3778C123.647 14.583 124.566 14.1855 125.733 14.1855C126.851 14.1855 127.77 14.5581 128.416 15.3281C129.062 16.0981 129.409 17.2159 129.409 18.6814C129.409 20.1717 129.087 21.3391 128.466 22.1091Z" fill="white"/>
<path id="Path" d="M0 0H15.2261V15.2261H0V0Z" fill="white"/>
<path id="Path_2" d="M16.8154 0H32.0416V15.2261H16.8154V0Z" fill="white"/>
<path id="Path_3" d="M0 16.8164H15.2261V32.0426H0V16.8164Z" fill="white"/>
<path id="Path_4" d="M16.8154 16.8164H32.0416V32.0426H16.8154V16.8164Z" fill="white"/>
</g>
</svg>
