<svg width="111" height="25" viewBox="0 0 111 25" fill="none" xmlns="http://www.w3.org/2000/svg">
<path fill-rule="evenodd" clip-rule="evenodd" d="M110.999 9.5741V11.5408H108.554V16.3564C108.554 16.9813 108.664 17.4041 108.885 17.6614C109.124 17.9371 109.455 18.0474 109.933 18.0474C110.061 18.0474 110.227 18.029 110.41 17.9739C110.631 17.9187 110.76 17.8452 110.907 17.7533L110.999 17.6798V19.6465L110.98 19.6649C110.833 19.7384 110.576 19.8303 110.227 19.9038C109.896 19.959 109.547 20.0141 109.216 20.0141C107.194 20.0141 106.183 18.9297 106.183 16.7792V11.5408H102.581V19.7568H100.173V11.5224H98.5001V9.5741H100.173V8.15882C100.173 7.44199 100.338 6.81706 100.651 6.26566C100.963 5.69587 101.386 5.27312 101.956 4.96066C102.525 4.68495 103.15 4.51953 103.867 4.51953C104.437 4.51953 104.878 4.59305 105.209 4.70333L105.264 4.72171V6.79868L105.172 6.74354C104.786 6.57812 104.437 6.5046 104.106 6.5046C103.628 6.5046 103.242 6.65164 102.985 6.94573C102.728 7.23981 102.581 7.69932 102.581 8.28748V9.5741H106.183V7.27657L106.238 7.25819L108.517 6.57812L108.591 6.55974V9.5741H110.999ZM48.6896 5.6778C48.9653 5.42048 49.2961 5.27344 49.7005 5.27344C50.1233 5.27344 50.4725 5.42048 50.7114 5.6778C50.9871 5.95351 51.1342 6.28435 51.1342 6.67034C51.1342 7.05632 50.9871 7.38717 50.7114 7.64449C50.4541 7.88343 50.1049 8.03048 49.7005 8.03048C49.2961 8.03048 48.9653 7.90181 48.6896 7.64449C48.4139 7.38717 48.2668 7.05632 48.2668 6.67034C48.2668 6.26597 48.4139 5.93513 48.6896 5.6778ZM39.1871 14.4808L38.5254 16.3556H38.4702C38.3599 15.9329 38.1578 15.2896 37.8269 14.5176L34.2795 5.60317H30.8057V19.8111H33.1032V11.0437C33.1032 10.4923 33.1032 9.86739 33.0848 9.09542C33.0718 8.82128 33.0494 8.5935 33.031 8.40549C33.0235 8.32878 33.0166 8.2587 33.0113 8.19478H33.0664C33.1767 8.74619 33.3054 9.15056 33.3973 9.40788L37.6615 19.7743H39.279L43.5064 9.31598C43.5767 9.13326 43.647 8.81081 43.7173 8.48836L43.7173 8.48835C43.7389 8.38914 43.7605 8.28992 43.7821 8.19478H43.8373C43.7821 9.24246 43.7454 10.1799 43.727 10.7496V19.756H46.1716V5.56641H42.8264L39.1871 14.4808ZM48.4875 9.57422H50.877V19.7569H48.4875V9.57422ZM59.3503 9.48298C58.9092 9.39108 58.4497 9.33594 58.0086 9.33594C56.9241 9.33594 55.9316 9.57488 55.1045 10.0528C54.2774 10.5307 53.6157 11.1923 53.1929 12.0195C52.7518 12.8649 52.5312 13.8391 52.5312 14.9603C52.5312 15.9345 52.7518 16.7983 53.1746 17.5887C53.5973 18.3606 54.1855 18.9856 54.9758 19.4083C55.7294 19.8311 56.6117 20.0516 57.6042 20.0516C58.7438 20.0516 59.7179 19.8127 60.4899 19.3716L60.5083 19.3532V17.1475L60.4164 17.2211C60.0672 17.4784 59.6628 17.699 59.2584 17.8276C58.8357 17.9747 58.4497 18.0482 58.1188 18.0482C57.1631 18.0482 56.4095 17.7725 55.8765 17.1659C55.3251 16.5778 55.0493 15.769 55.0493 14.7581C55.0493 13.7104 55.3251 12.8833 55.8948 12.2768C56.4646 11.6702 57.2182 11.3578 58.1372 11.3578C58.9092 11.3578 59.6996 11.6151 60.4164 12.1297L60.5083 12.2033V9.86897L60.4899 9.85058L60.4626 9.83934C60.1571 9.71344 59.8143 9.57221 59.3503 9.48298ZM65.6178 9.97799C66.0957 9.59201 66.6471 9.4082 67.2353 9.4082C67.6397 9.4082 67.9705 9.46334 68.1359 9.57363L68.1911 9.59201V11.9814L68.0992 11.9079C67.9705 11.816 67.7867 11.7425 67.5294 11.669C67.4376 11.6567 67.3519 11.6425 67.2703 11.6289L67.2702 11.6288L67.2701 11.6288L67.27 11.6288C67.1066 11.6016 66.9596 11.5771 66.8126 11.5771C66.1876 11.5771 65.673 11.8528 65.2686 12.4042C64.8643 12.9372 64.6805 13.6724 64.6805 14.5547V19.7563H62.291V9.57363H64.6805V11.3565H64.6988C64.9378 10.7867 65.2135 10.3088 65.6178 9.97799ZM73.742 9.35354C72.0694 9.35354 70.7277 9.84981 69.7903 10.824C68.8345 11.7981 68.375 13.1399 68.375 14.8309C68.375 16.4116 68.8529 17.6982 69.7719 18.6356C70.6909 19.5546 71.9408 20.0325 73.5031 20.0325C75.1389 20.0325 76.4439 19.5362 77.3813 18.5437C78.3371 17.5511 78.7966 16.2278 78.7966 14.5919C78.7966 12.9745 78.3555 11.6878 77.4549 10.7504C76.591 9.81305 75.3227 9.35354 73.742 9.35354ZM73.6505 18.0291C74.5144 18.0291 75.2128 17.7534 75.6539 17.1836C76.1134 16.6138 76.3156 15.75 76.3524 14.6471C76.3524 13.5627 76.0951 12.7356 75.6172 12.1658C75.1393 11.596 74.4776 11.3203 73.6321 11.3203C72.7682 11.3203 72.0882 11.6144 71.5919 12.2026C71.114 12.7907 70.8567 13.6178 70.8567 14.7023C70.8567 15.75 71.0956 16.5771 71.5919 17.1469C72.0882 17.7534 72.7866 18.0291 73.6505 18.0291ZM84.1267 13.8023C83.3731 13.4899 82.8952 13.2509 82.6747 13.0487C82.4909 12.8649 82.399 12.6076 82.399 12.2768C82.399 12.0011 82.5092 11.7254 82.7849 11.5416C83.0606 11.3578 83.3731 11.2659 83.8326 11.2659C84.237 11.2659 84.6597 11.3394 85.0641 11.4497C85.4685 11.5599 85.8361 11.7254 86.1301 11.9459L86.222 12.0195V9.77706L86.1669 9.75868C85.8912 9.6484 85.5236 9.53812 85.0825 9.44622C84.6413 9.3727 84.237 9.33594 83.9061 9.33594C82.7666 9.33594 81.8292 9.61164 81.094 10.2182C80.3587 10.788 80.0095 11.5599 80.0095 12.4606C80.0095 12.9385 80.083 13.3612 80.2485 13.7104C80.4139 14.0597 80.6528 14.3905 80.9837 14.6662C81.3145 14.9235 81.7924 15.2176 82.4541 15.4933C83.0055 15.7323 83.4282 15.9161 83.6856 16.0631C83.9429 16.2102 84.1083 16.3756 84.237 16.5042C84.3289 16.6513 84.384 16.8351 84.384 17.074C84.384 17.7541 83.8694 18.0849 82.8217 18.0849C82.4173 18.0849 81.9946 18.0114 81.4983 17.846C81.0021 17.6806 80.5425 17.4416 80.1566 17.1659L80.0647 17.0924V19.4267L80.1198 19.4451C80.469 19.6105 80.8918 19.7208 81.4064 19.8494C81.9211 19.9413 82.3806 20.0149 82.7849 20.0149C84.0164 20.0149 85.0273 19.7392 85.7442 19.1326C86.4794 18.5444 86.8654 17.7909 86.8654 16.8167C86.8654 16.1366 86.6816 15.5301 86.2772 15.0706C85.7442 14.6295 85.0825 14.1699 84.1267 13.8023ZM89.2181 10.824C90.1555 9.84981 91.4972 9.35354 93.1698 9.35354C94.7505 9.35354 96.0188 9.81305 96.8826 10.7504C97.7833 11.6878 98.2244 12.9745 98.2244 14.5919C98.2244 16.2278 97.7649 17.5511 96.8091 18.5437C95.8717 19.5362 94.5667 20.0325 92.9309 20.0325C91.3686 20.0325 90.1187 19.5546 89.1997 18.6356C88.2807 17.6982 87.8028 16.4116 87.8028 14.8309C87.8028 13.1399 88.2807 11.7981 89.2181 10.824ZM95.0629 17.1836C94.6217 17.7534 93.9233 18.0291 93.0594 18.0291C92.1772 18.0291 91.4971 17.7534 91.0008 17.1469C90.5046 16.5771 90.2656 15.75 90.2656 14.7023C90.2656 13.6178 90.5229 12.7907 91.0008 12.2026C91.4971 11.6144 92.1772 11.3203 93.041 11.3203C93.8682 11.3203 94.5482 11.596 95.0261 12.1658C95.504 12.7356 95.7613 13.5627 95.7613 14.6471C95.7613 15.75 95.5224 16.6138 95.0629 17.1836Z" fill="#818B94"/>
<path d="M0 0.824219H11.2671V12.0913H0V0.824219Z" fill="#818B94"/>
<path d="M12.4434 0.824219H23.7105V12.0913H12.4434V0.824219Z" fill="#818B94"/>
<path d="M0 13.2676H11.2671V24.5347H0V13.2676Z" fill="#818B94"/>
<path d="M12.4434 13.2676H23.7105V24.5347H12.4434V13.2676Z" fill="#818B94"/>
</svg>
