<svg width="76" height="37" viewBox="0 0 76 37" fill="none" xmlns="http://www.w3.org/2000/svg">
<g clip-path="url(#clip0_401_372)">
<path fill-rule="evenodd" clip-rule="evenodd" d="M0 37H37.9785L75.1458 0H0V37Z" fill="#818B94"/>
<path fill-rule="evenodd" clip-rule="evenodd" d="M44.5952 7.39984H37.1736L37.1984 24.7734L30.7359 7.39408H24.328L18.8113 21.9088C18.2248 18.2153 14.3885 16.9409 11.37 15.9863C9.37661 15.3491 7.261 14.4117 7.28248 13.3757C7.299 12.5256 8.41422 11.7371 10.6306 11.8546C12.1176 11.9344 13.431 12.0536 16.044 13.31L18.6131 8.85352C16.2307 7.6465 12.9362 6.8843 10.2349 6.88184H10.2184C7.06852 6.88184 4.4457 7.89728 2.81996 9.5705C1.68657 10.7381 1.07526 12.223 1.05048 13.865C1.00918 16.1244 1.84105 17.7261 3.58905 19.0063C5.06609 20.0834 6.95535 20.7823 8.61992 21.2954C10.6727 21.9285 12.3497 22.4794 12.329 23.6519C12.3125 24.0794 12.1506 24.479 11.8417 24.8013C11.3295 25.3276 10.5447 25.5249 9.45839 25.5463C7.36261 25.5907 5.80957 25.2626 3.33461 23.8065L1.04883 28.3205C3.52131 29.7199 6.14579 30.4221 9.12796 30.4221L9.79874 30.4171C12.3943 30.3703 14.5008 29.7511 16.1745 28.4109C16.2703 28.3344 16.3562 28.2571 16.4454 28.179L16.1646 29.6196L22.4263 29.5998L23.5498 26.7369C24.7311 27.1381 26.0743 27.3601 27.5001 27.3601C28.8896 27.3601 30.1965 27.1496 31.3555 26.7714L32.1386 29.5998L43.3734 29.6105L43.4007 23.0837H45.7914C51.5698 23.0837 54.9857 20.1566 54.9857 15.2479C54.984 9.78099 51.6632 7.39984 44.5952 7.39984ZM27.5001 22.2508C26.6369 22.2508 25.8273 22.1012 25.1309 21.8381L27.4737 14.4751H27.5191L29.8239 21.8586C29.13 22.1053 28.3403 22.2508 27.5001 22.2508ZM45.0297 18.0205H43.399V12.0865H45.0305C47.2031 12.0865 48.9379 12.8068 48.9379 15.0153C48.9363 17.301 47.2031 18.0205 45.0305 18.0205" fill="white"/>
</g>
<defs>
<clipPath id="clip0_401_372">
<rect width="76" height="37" fill="white"/>
</clipPath>
</defs>
</svg>
