<svg width="219" height="32" viewBox="0 0 219 32" fill="none" xmlns="http://www.w3.org/2000/svg">
<path d="M40.8984 10.4343H61.3657V0H40.8984V10.4343Z" fill="#6F7A83"/>
<path d="M0 0V10.4343H10.2154V31.3029H20.4308V10.4343H30.6827V0H0Z" fill="#6F7A83"/>
<path d="M30.6831 31.3061H61.3658V20.8718H40.8985V10.4375H30.6831V31.3061Z" fill="#6F7A83"/>
<path d="M87.4521 7.87891H72.4209V12.2204H77.4556V25.8288H82.4174V12.2204H87.4521V7.87891Z" fill="#6F7A83"/>
<path d="M93.1062 12.0762C89.5673 12.0762 86.9404 14.4476 86.9404 19.1175C86.9404 23.2401 89.1659 26.1223 93.2156 26.1223C95.3317 26.1223 97.0464 25.5751 98.6881 24.59L96.9369 21.6349C95.587 22.3281 94.6385 22.5834 93.4345 22.5834C92.1941 22.5834 91.3185 21.9267 91.136 20.4309H99.053C99.0895 20.212 99.0895 19.9201 99.0895 19.5188C99.1259 14.5206 96.8275 12.0762 93.1062 12.0762ZM91.209 17.5487C91.3549 16.1988 91.9387 15.5056 92.9967 15.5056C94.3466 15.5056 94.8209 16.1988 95.0398 17.5487H91.209Z" fill="#6F7A83"/>
<path d="M107.881 22.3645C106.641 22.3645 105.984 21.27 105.984 19.1175C105.984 17.0015 106.568 15.7975 107.772 15.7975C108.757 15.7975 109.195 16.3447 109.852 17.5487L113.026 15.1408C111.858 13.2436 110.399 12.0762 107.845 12.0762C103.54 12.0762 101.424 14.9219 101.424 19.0445C101.424 23.5685 103.795 26.0859 107.735 26.0859C110.107 26.0859 111.566 25.1738 113.135 22.8753L110.216 20.5768C109.341 21.8902 108.757 22.3645 107.881 22.3645Z" fill="#6F7A83"/>
<path d="M123.788 12.0776C122.183 12.0776 121.234 12.6249 120.395 13.2451V7.15234L115.762 9.01301V25.8684H120.395V18.1704C120.395 16.4921 120.979 16.0178 121.964 16.0178C122.912 16.0178 123.496 16.4921 123.496 18.2069V25.8684H128.13V17.6231C128.13 14.0842 126.707 12.0776 123.788 12.0776Z" fill="#6F7A83"/>
<path d="M139.258 21.782C137.105 21.782 136.23 19.5929 136.23 16.8567C136.23 14.011 137.142 11.9314 139.221 11.9314C140.863 11.9314 141.483 12.9894 142.104 14.6677L146.628 12.88C145.387 9.48699 143.636 7.58984 139.221 7.58984C134.406 7.58984 131.013 11.0923 131.013 16.8567C131.013 22.1833 133.858 26.1235 139.185 26.1235C143.454 26.1235 145.46 23.825 146.664 21.4901L142.469 19.2646C141.483 20.9428 140.827 21.782 139.258 21.782Z" fill="#6F7A83"/>
<path d="M154.107 13.3531V12.368H149.474V25.8305H154.107V18.4973C154.107 16.8555 154.8 16.3083 155.931 16.3083C156.843 16.3083 157.5 16.7826 158.084 17.4393L159.178 12.6599C158.631 12.3316 157.974 12.0762 156.989 12.0762C155.785 12.0762 154.873 12.5869 154.107 13.3531Z" fill="#6F7A83"/>
<path d="M169.064 20.0652C169.064 21.7435 168.48 22.2178 167.531 22.2178C166.583 22.2178 165.999 21.7435 165.999 20.0287V12.3672H161.366V20.6125C161.366 24.1514 162.789 26.1215 165.744 26.1215C167.313 26.1215 168.298 25.5742 169.1 24.954V25.8661H173.734V12.4037H169.1V20.0652" fill="#6F7A83"/>
<path d="M185.081 12.0762C183.476 12.0762 182.527 12.6234 181.688 13.2437V12.3316H177.055V25.794H181.688V18.096C181.688 16.4177 182.272 15.9434 183.257 15.9434C184.205 15.9434 184.789 16.4177 184.789 18.1324V25.794H189.423V17.5487C189.423 14.0828 188.036 12.0762 185.081 12.0762Z" fill="#6F7A83"/>
<path d="M198.617 22.3645C197.377 22.3645 196.72 21.27 196.72 19.1175C196.72 17.0015 197.304 15.7975 198.471 15.7975C199.456 15.7975 199.894 16.3447 200.551 17.5487L203.725 15.1408C202.557 13.2436 201.098 12.0762 198.544 12.0762C194.239 12.0762 192.123 14.9219 192.123 19.0445C192.123 23.5685 194.494 26.0859 198.435 26.0859C200.806 26.0859 202.265 25.1738 203.834 22.8753L200.916 20.5768C200.113 21.8902 199.493 22.3645 198.617 22.3645Z" fill="#6F7A83"/>
<path d="M214.523 12.0776C212.918 12.0776 211.97 12.6249 211.13 13.2451V7.15234L206.497 9.01301V25.8684H211.13V18.1704C211.13 16.4921 211.714 16.0178 212.699 16.0178C213.648 16.0178 214.232 16.4921 214.232 18.2069V25.8684H218.865V17.6231C218.901 14.0842 217.479 12.0776 214.523 12.0776Z" fill="#6F7A83"/>
</svg>
