<svg width="237" height="52" viewBox="0 0 237 52" fill="none" xmlns="http://www.w3.org/2000/svg">
<g clip-path="url(#clip0_620_8528)">
<path fill-rule="evenodd" clip-rule="evenodd" d="M235.828 13.9579C236.183 14.1505 236.457 14.414 236.649 14.7485C236.852 15.083 236.953 15.448 236.953 15.8433C236.953 16.2386 236.852 16.6035 236.649 16.938C236.446 17.2725 236.173 17.5361 235.828 17.7287C235.483 17.9213 235.098 18.0176 234.672 18.0176C234.266 18.0176 233.891 17.9213 233.546 17.7287C233.201 17.5361 232.932 17.2725 232.74 16.938C232.537 16.6137 232.436 16.2487 232.436 15.8433C232.436 15.448 232.537 15.083 232.74 14.7485C232.932 14.414 233.201 14.1505 233.546 13.9579C233.891 13.7552 234.266 13.6538 234.672 13.6538C235.098 13.6538 235.483 13.7552 235.828 13.9579ZM235.6 17.379C235.873 17.2269 236.081 17.0191 236.223 16.7556C236.386 16.4819 236.462 16.1778 236.451 15.8433C236.462 15.5088 236.386 15.2098 236.223 14.9462C236.081 14.6725 235.873 14.4597 235.6 14.3076C235.326 14.1556 235.016 14.0795 234.672 14.0795C234.347 14.0795 234.048 14.1556 233.774 14.3076C233.511 14.4597 233.303 14.6725 233.15 14.9462C232.998 15.2098 232.922 15.5088 232.922 15.8433C232.922 16.1778 232.998 16.4819 233.15 16.7556C233.303 17.0191 233.511 17.2269 233.774 17.379C234.048 17.5209 234.347 17.5918 234.672 17.5918C235.016 17.5918 235.326 17.5209 235.6 17.379ZM235.493 15.7673C235.382 15.8788 235.24 15.9599 235.067 16.0105L235.721 16.9836H235.128L234.58 16.0866H234.367V16.9836H233.865V14.6421H234.565C235.285 14.6421 235.645 14.8803 235.645 15.3567C235.645 15.5189 235.595 15.6558 235.493 15.7673ZM234.641 15.7064C234.966 15.7064 235.128 15.5899 235.128 15.3567C235.128 15.2351 235.087 15.1489 235.006 15.0983C234.925 15.0374 234.798 15.007 234.626 15.007H234.383V15.7064H234.641Z" fill="black"/>
<path fill-rule="evenodd" clip-rule="evenodd" d="M76.1352 21.0281C75.9932 21.17 75.8157 21.241 75.6028 21.241H69.2747C69.0617 21.241 68.9552 21.3423 68.9552 21.5451V35.9439C68.9552 37.4644 69.3 38.5591 69.9896 39.2281C70.6691 39.9072 71.7542 40.2468 73.2449 40.2468H75.116C75.3188 40.2468 75.4963 40.3178 75.6484 40.4597C75.7904 40.6016 75.8614 40.7688 75.8614 40.9614V45.4468C75.8614 45.8827 75.6129 46.1412 75.116 46.2223L71.8759 46.2831C68.6003 46.2831 66.1562 45.7458 64.5438 44.6714C62.9313 43.5969 62.1048 41.5646 62.0643 38.5743V21.5451C62.0643 21.3423 61.9578 21.241 61.7448 21.241H58.2005C57.9976 21.241 57.8252 21.17 57.6833 21.0281C57.5311 20.8963 57.4551 20.7291 57.4551 20.5264V16.3451C57.4551 16.1423 57.5311 15.97 57.6833 15.8281C57.8252 15.6963 57.9976 15.6304 58.2005 15.6304H61.7448C61.9578 15.6304 62.0643 15.5291 62.0643 15.3264V8.3322C62.0643 8.13961 62.1352 7.97236 62.2772 7.83045C62.4192 7.68854 62.5967 7.61758 62.8096 7.61758H68.2098C68.4228 7.61758 68.6003 7.68854 68.7422 7.83045C68.8944 7.97236 68.9704 8.13961 68.9704 8.3322V15.3264C68.9704 15.5291 69.0718 15.6304 69.2747 15.6304H75.618C75.8208 15.6304 75.9983 15.6963 76.1504 15.8281C76.2924 15.97 76.3634 16.1423 76.3634 16.3451V20.5264C76.3532 20.7291 76.2772 20.8963 76.1352 21.0281ZM104.657 30.8047L104.596 32.6597C104.596 33.1361 104.348 33.3743 103.851 33.3743H84.3952C84.1822 33.3743 84.0757 33.4757 84.0757 33.6784C84.1974 34.9961 84.3851 35.8932 84.6386 36.3696C85.6324 39.2382 88.0562 40.6928 91.9098 40.7334C94.7291 40.7334 96.9703 39.6184 98.6335 37.3883C98.7957 37.1451 99.0036 37.0234 99.2571 37.0234C99.4194 37.0234 99.5614 37.0842 99.6831 37.2059L103.532 40.2468C103.907 40.5306 103.973 40.8499 103.729 41.2047C102.441 42.9583 100.733 44.3115 98.603 45.2644C96.4632 46.2273 94.0902 46.7088 91.4839 46.7088C88.2489 46.7088 85.5006 46.0094 83.2391 44.6106C80.9776 43.2219 79.3297 41.2706 78.2953 38.7568C77.342 36.6078 76.8653 33.6176 76.8653 29.786C76.8653 27.4749 77.1138 25.6047 77.6107 24.1755C78.4423 21.388 80.0091 19.1883 82.3112 17.5766C84.6132 15.9548 87.3767 15.1439 90.6016 15.1439C98.7653 15.1439 103.369 19.2492 104.414 27.4597C104.576 28.4531 104.657 29.5681 104.657 30.8047ZM86.7834 22.2293C85.7693 22.9692 85.0544 23.9981 84.6386 25.3158C84.3851 25.9848 84.2177 26.8566 84.1366 27.931C84.0555 28.1338 84.1366 28.2351 84.38 28.2351H97.0058C97.2187 28.2351 97.3252 28.1338 97.3252 27.931C97.234 26.9377 97.1072 26.1825 96.9449 25.6655C96.5697 24.2363 95.8345 23.1213 94.7392 22.3205C93.644 21.5197 92.2648 21.1193 90.6016 21.1193C89.0703 21.1193 87.7976 21.4893 86.7834 22.2293ZM130.67 18.0176C132.677 19.9334 133.681 22.5435 133.681 25.848V45.4468C133.681 45.6495 133.61 45.8168 133.468 45.9486C133.316 46.0905 133.139 46.1614 132.936 46.1614H127.216C127.014 46.1614 126.836 46.0905 126.684 45.9486C126.542 45.8168 126.471 45.6495 126.471 45.4468V27.2772C126.471 25.4425 125.934 23.9575 124.859 22.8223C123.773 21.687 122.344 21.1193 120.569 21.1193C118.784 21.1193 117.344 21.6768 116.249 22.7919C115.143 23.9069 114.591 25.3817 114.591 27.2164V45.4468C114.591 45.6495 114.52 45.8168 114.378 45.9486C114.236 46.0905 114.058 46.1614 113.845 46.1614H108.126C107.923 46.1614 107.745 46.0905 107.593 45.9486C107.451 45.8168 107.38 45.6495 107.38 45.4468V16.3451C107.38 16.1423 107.451 15.9751 107.593 15.8433C107.745 15.7014 107.923 15.6304 108.126 15.6304H113.845C114.058 15.6304 114.236 15.7014 114.378 15.8433C114.52 15.9751 114.591 16.1423 114.591 16.3451V18.2609C114.591 18.3825 114.631 18.4585 114.712 18.4889C114.804 18.5295 114.87 18.494 114.91 18.3825C116.604 16.2234 119.169 15.1439 122.607 15.1439C125.974 15.1439 128.662 16.1018 130.67 18.0176ZM157.321 16.4667C159.318 17.3384 160.855 18.5447 161.93 20.0854C163.005 21.616 163.542 23.3595 163.542 25.3158V45.4468C163.542 45.6495 163.471 45.8168 163.329 45.9486C163.177 46.0905 163 46.1614 162.797 46.1614H157.077C156.874 46.1614 156.697 46.0905 156.545 45.9486C156.403 45.8168 156.332 45.6495 156.332 45.4468V43.531C156.332 43.4195 156.291 43.3536 156.21 43.3334C156.119 43.3131 156.033 43.3384 155.952 43.4094C153.923 45.5685 150.982 46.648 147.129 46.648C144.015 46.648 141.455 45.8878 139.447 44.3673C137.439 42.857 136.435 40.6067 136.435 37.6164C136.435 34.5147 137.566 32.0971 139.827 30.3638C142.078 28.6304 145.258 27.7638 149.365 27.7638H156.012C156.225 27.7638 156.332 27.6624 156.332 27.4597V26.0152C156.332 24.4644 155.855 23.2632 154.902 22.4117C153.949 21.5501 152.519 21.1193 150.612 21.1193C149.03 21.1193 147.752 21.388 146.779 21.9252C145.805 22.4624 145.197 23.2125 144.953 24.1755C144.822 24.6519 144.533 24.8496 144.086 24.7685L138.047 24.0538C137.844 24.0133 137.667 23.9423 137.515 23.841C137.373 23.7396 137.322 23.6078 137.363 23.4457C137.697 21.023 139.056 19.0312 141.439 17.4702C143.823 15.9193 146.814 15.1439 150.414 15.1439C153.031 15.1439 155.333 15.5848 157.321 16.4667ZM153.928 39.593C155.379 38.5591 156.104 37.2414 156.104 35.6398V32.8421C156.104 32.6394 155.997 32.538 155.784 32.538H150.567C148.366 32.538 146.637 32.9384 145.379 33.7392C144.112 34.5299 143.478 35.6651 143.478 37.1451C143.478 38.4223 143.965 39.4055 144.938 40.0948C145.912 40.7942 147.164 41.1439 148.696 41.1439C150.734 41.1439 152.478 40.6269 153.928 39.593ZM194.194 30.8047C194.194 33.6328 193.804 36.1264 193.023 38.2854C192.11 40.9108 190.634 42.9583 188.596 44.4281C186.568 45.908 184.083 46.648 181.142 46.648C178.242 46.648 175.859 45.5887 173.993 43.4702C173.912 43.3587 173.83 43.3232 173.749 43.3638C173.658 43.4043 173.612 43.4804 173.612 43.5919V45.4468C173.612 45.6495 173.541 45.8219 173.399 45.9638C173.258 46.0956 173.08 46.1614 172.867 46.1614H167.147C166.945 46.1614 166.767 46.0956 166.615 45.9638C166.473 45.8219 166.402 45.6495 166.402 45.4468V5.04799C166.402 4.84526 166.473 4.67801 166.615 4.54624C166.767 4.40433 166.945 4.33337 167.147 4.33337H172.867C173.08 4.33337 173.258 4.40433 173.399 4.54624C173.541 4.68815 173.612 4.8554 173.612 5.04799V18.0176C173.612 18.1392 173.658 18.2203 173.749 18.2609C173.83 18.3014 173.912 18.2811 173.993 18.2C175.778 16.1626 178.141 15.1439 181.081 15.1439C184.144 15.1439 186.684 15.8839 188.703 17.3638C190.711 18.8336 192.191 20.8862 193.144 23.5217C193.844 25.7517 194.194 28.1794 194.194 30.8047ZM186.801 30.9264C186.801 27.8145 186.177 25.3817 184.93 23.6281C183.815 21.9556 182.156 21.1193 179.956 21.1193C177.928 21.1193 176.376 21.9961 175.301 23.7497C174.256 25.3817 173.739 27.7536 173.749 30.8655C173.749 33.9369 174.221 36.248 175.164 37.7989C176.249 39.7147 177.867 40.6726 180.017 40.6726C181.173 40.6726 182.212 40.4191 183.135 39.9123C184.038 39.4156 184.763 38.7111 185.31 37.7989C186.304 36.1264 186.801 33.8355 186.801 30.9264ZM197.176 46.0094C197.034 45.8675 196.963 45.6952 196.963 45.4924V5.09361C196.963 4.89088 197.034 4.72363 197.176 4.59185C197.318 4.44994 197.495 4.37899 197.708 4.37899H203.428C203.63 4.37899 203.808 4.44994 203.96 4.59185C204.102 4.73376 204.173 4.90102 204.173 5.09361V45.4924C204.173 45.6952 204.102 45.8675 203.96 46.0094C203.808 46.1412 203.63 46.2071 203.428 46.2071H197.708C197.495 46.2071 197.318 46.1412 197.176 46.0094ZM234.749 30.7591L234.688 32.6141C234.688 33.0905 234.439 33.3287 233.942 33.3287H214.487C214.274 33.3287 214.167 33.4301 214.167 33.6328C214.289 34.9404 214.476 35.8375 214.73 36.324C215.724 39.1926 218.148 40.6472 222.001 40.6878C224.82 40.6878 227.062 39.5677 228.725 37.3275C228.887 37.0944 229.09 36.9778 229.333 36.9778C229.506 36.9778 229.653 37.0386 229.774 37.1603L233.623 40.2012C233.998 40.4749 234.064 40.7942 233.821 41.1591C232.533 42.9127 230.824 44.2659 228.694 45.2187C226.555 46.1716 224.177 46.6531 221.56 46.6632C218.335 46.6531 215.592 45.9536 213.33 44.565C211.069 43.1661 209.421 41.2149 208.387 38.7111C207.433 36.5622 206.957 33.572 206.957 29.7404C206.957 27.4293 207.205 25.5591 207.702 24.1299C208.534 21.3423 210.101 19.1377 212.403 17.5158C214.694 15.9041 217.458 15.0983 220.693 15.0983C228.857 15.0983 233.456 19.2035 234.49 27.4141C234.663 28.4074 234.749 29.5225 234.749 30.7591ZM216.875 22.1837C215.861 22.9236 215.146 23.9474 214.73 25.255C214.476 25.9342 214.309 26.811 214.228 27.8854C214.147 28.0881 214.228 28.1895 214.471 28.1895H227.097C227.31 28.1895 227.417 28.0881 227.417 27.8854C227.325 26.892 227.199 26.1369 227.036 25.6199C226.661 24.1805 225.926 23.0655 224.831 22.2749C223.735 21.4741 222.356 21.0737 220.693 21.0737C219.162 21.0839 217.889 21.4538 216.875 22.1837Z" fill="#818B94"/>
<path fill-rule="evenodd" clip-rule="evenodd" d="M52.8002 33.3439L37.5884 50.4035C36.7213 51.3766 35.4739 51.9088 34.1809 51.9088C33.897 51.9189 33.613 51.8936 33.3291 51.8328L10.8916 47.4538C9.2944 47.1497 7.97097 45.9942 7.45377 44.4585L0.258584 23.1111C-0.258618 21.5755 0.0912539 19.8573 1.17129 18.641L16.3983 1.59652C17.4631 0.410558 19.0908 -0.152015 20.6576 0.167284L43.095 4.53103C44.6923 4.85032 46.0157 6.00588 46.5329 7.54155L53.7129 28.8889C54.2453 30.4246 53.8802 32.1427 52.8002 33.3439ZM42.7908 6.0819L38.927 5.33687C39.2312 5.59535 39.4898 5.88424 39.7028 6.23395L49.7578 22.0772L45.0269 8.04331C44.6923 7.0398 43.8404 6.29477 42.7908 6.0819ZM39.6876 43.7439L43.095 37.2667C43.0748 37.2768 43.0545 37.287 43.0342 37.2971L28.8568 45.5076L37.6188 45.0515C38.4859 45.0211 39.2769 44.5041 39.6876 43.7439ZM17.8282 46.0702L25.4341 45.6749C25.3631 45.6445 25.2972 45.609 25.2364 45.5685L10.9525 37.3123C10.8511 37.2515 10.7547 37.1856 10.6635 37.1147L15.6073 44.9147C16.0789 45.6749 16.9307 46.1006 17.8282 46.0702ZM14.2991 8.25617L10.8916 14.7334C10.9119 14.7232 10.9322 14.708 10.9525 14.6878L25.1147 6.49243L16.3527 6.93337C15.4856 6.97898 14.6946 7.48073 14.2991 8.25617ZM36.1585 5.92986L28.5525 6.32518C28.6134 6.35559 28.6793 6.39107 28.7503 6.43161L43.0342 14.6878C43.1356 14.7486 43.2319 14.8145 43.3232 14.8854L38.3794 7.08541C37.8926 6.32518 37.0407 5.88424 36.1585 5.92986ZM43.2015 17.7287C43.2015 17.0445 42.8364 16.4059 42.2432 16.0562L27.9593 7.80003C27.6551 7.61758 27.3204 7.54155 26.9857 7.54155C26.6511 7.54155 26.3164 7.61758 26.0274 7.80003L11.7435 16.0562C11.1502 16.4059 10.7699 17.0445 10.7699 17.7287V34.2714C10.7699 34.9556 11.1502 35.5942 11.7435 35.9439L26.0274 44.2C26.6207 44.5497 27.366 44.5497 27.9593 44.2L42.2432 35.9439C42.8364 35.5942 43.2015 34.9556 43.2015 34.2714V17.7287ZM9.18792 34.2562V17.9263L5.00467 25.8784C4.59395 26.669 4.63958 27.6117 5.11115 28.3568L9.26398 34.8948C9.22341 34.692 9.19806 34.4792 9.18792 34.2562ZM44.7836 17.7287V34.0585L48.9668 26.1065C49.3775 25.3158 49.3471 24.3731 48.8755 23.6281L44.7227 17.0901C44.7633 17.2928 44.7836 17.5057 44.7836 17.7287ZM14.8467 5.70179C15.3031 5.50413 15.7746 5.38249 16.2766 5.35208L34.3635 4.4398L20.3534 1.70296C20.1708 1.67255 19.9832 1.65734 19.7905 1.65734C18.9539 1.65734 18.1477 2.00705 17.5848 2.64565L14.8467 5.70179ZM1.74934 22.6094L3.14883 26.7603C3.19446 26.1977 3.33137 25.6503 3.60518 25.1486L12.4128 8.42342L2.3426 19.6901C1.64286 20.4807 1.41468 21.6059 1.74934 22.6094ZM11.1807 45.903L15.0445 46.6632C14.7402 46.4047 14.4816 46.1006 14.2534 45.7509L4.21365 29.9076L8.94453 43.9416C9.27919 44.9451 10.131 45.7053 11.1807 45.903ZM39.1248 46.2983C38.6684 46.4959 38.1968 46.6024 37.6948 46.6328L19.608 47.5451L33.6181 50.2819C34.6373 50.4796 35.7021 50.1299 36.3866 49.3544L39.1248 46.2983ZM52.2221 29.3755L50.8226 25.2398C50.7922 25.7872 50.6401 26.3345 50.3663 26.8363L41.5587 43.5766L51.6289 32.2948C52.3286 31.5041 52.5568 30.3942 52.2221 29.3755Z" fill="#818B94"/>
</g>
<defs>
<clipPath id="clip0_620_8528">
<rect width="237" height="52" fill="white"/>
</clipPath>
</defs>
</svg>
