<svg width="184" height="23" viewBox="0 0 184 23" fill="none" xmlns="http://www.w3.org/2000/svg">
<g clip-path="url(#clip0_269_25465)">
<path d="M129.154 0C131.479 0.0628661 134.295 0.161656 135.995 1.88598C136.999 3.04823 137.544 4.52302 137.534 6.04412C137.563 6.70817 137.45 7.37089 137.201 7.9896C136.953 8.60832 136.575 9.16932 136.091 9.63647C135.404 10.2317 134.62 10.7098 133.771 11.051C134.813 11.2838 135.78 11.7669 136.583 12.4565C137.644 13.6224 138.211 15.1399 138.167 16.6999C138.186 17.4315 138.054 18.1594 137.779 18.8399C137.503 19.5204 137.09 20.1396 136.564 20.6605C134.727 22.4881 132.31 22.5195 129.674 22.5824H119.076V17.9752L121.138 18.0066V4.57575L119.076 4.60718V0H129.154ZM127.142 9.08415C129.007 9.11558 129.269 9.11558 129.729 9.02128C130.248 8.91307 130.71 8.62765 131.034 8.2162C131.357 7.80475 131.52 7.29418 131.493 6.77606C131.518 6.36152 131.426 5.94813 131.226 5.58188C131.025 5.21563 130.725 4.91087 130.358 4.70148C129.834 4.44553 129.508 4.44553 127.184 4.4141L127.142 9.08415ZM127.142 17.9752H128.98C130.252 17.9752 132.053 17.9438 132.053 15.8018C132.08 15.3415 131.959 14.8844 131.707 14.4947C131.455 14.1049 131.084 13.802 130.647 13.6285C130.092 13.4039 129.83 13.4039 127.179 13.4039L127.142 17.9752Z" fill="#6F7A83"/>
<path d="M155.468 16.888C155.238 18.0735 154.939 19.6406 153.437 21.0461C151.935 22.4516 149.762 22.968 147.645 22.968C143.129 22.968 139.169 20.8261 139.169 14.3644C139.147 13.2388 139.302 12.1167 139.628 11.037C140.777 7.22907 143.951 5.64844 147.438 5.64844C150.056 5.64844 152.183 6.54652 153.41 7.75894C155.9 10.1254 155.771 13.9647 155.734 15.4376H145.384C145.384 16.7174 145.421 18.985 147.543 18.985C149.312 18.985 149.542 17.5167 149.643 16.906L155.468 16.888ZM149.652 12.2808C149.677 11.8376 149.621 11.3937 149.487 10.9696C149.345 10.5957 149.084 10.2761 148.742 10.0578C148.401 9.8396 147.997 9.73421 147.589 9.75718C145.623 9.75718 145.559 11.6117 145.559 12.2808H149.652Z" fill="#6F7A83"/>
<path d="M173.039 17.9745V22.5816H165.969L165.84 20.6642C165.33 21.4105 164.63 22.0149 163.81 22.4186C162.99 22.8223 162.076 23.0115 161.159 22.9678C158.113 22.9678 156.216 21.2076 156.216 18.0059C156.18 17.14 156.372 16.2796 156.775 15.5074C157.177 14.7351 157.775 14.077 158.513 13.5963C160.672 12.1549 164.026 12.2806 165.679 12.312C165.722 11.7262 165.701 11.1376 165.615 10.5563C165.567 10.2108 165.39 9.89495 165.118 9.67007C164.845 9.44519 164.497 9.32732 164.141 9.33936C163.934 9.33663 163.729 9.37503 163.537 9.45222C163.346 9.52942 163.173 9.64379 163.029 9.7884C162.838 10.0076 162.694 10.2621 162.606 10.5367C162.517 10.8113 162.486 11.1004 162.514 11.387H156.804C156.804 10.4585 157.005 9.5404 157.392 8.69273C158.605 6.29484 161.683 5.58984 164.039 5.58984C166.263 5.58984 168.817 6.22749 170.223 7.63748C171.5 8.88133 171.628 10.3317 171.628 11.5397V17.9745H173.039ZM165.689 15.2263C165.073 15.1537 164.449 15.1979 163.851 15.3565C163.397 15.4749 162.999 15.7429 162.725 16.1153C162.45 16.4877 162.316 16.9415 162.344 17.3997C162.344 18.5178 162.937 19.1285 163.819 19.1285C164.114 19.1323 164.405 19.0605 164.663 18.9203C164.921 18.78 165.137 18.5763 165.289 18.3292C165.555 17.8709 165.691 17.3517 165.684 16.8249L165.689 15.2263Z" fill="#6F7A83"/>
<path d="M181.285 0.830078V6.01204H184V10.6013H181.285V16.569C181.317 17.1753 181.382 18.4236 182.953 18.4236C183.254 18.4259 183.553 18.3726 183.835 18.2664V22.4874C182.662 22.7309 181.469 22.8707 180.27 22.905C178.373 22.905 176.93 22.3886 176.209 21.6881C175.29 20.7901 175.263 19.6091 175.263 18.6795V10.6013H173.788V6.01204H175.722V2.06944L181.285 0.830078Z" fill="#6F7A83"/>
<path d="M0 0H9.91801V4.60718L7.88755 4.57575L11.2548 17.4992L14.8885 4.57575L12.8626 4.60718V0H21.9584V4.60718L20.4194 4.57575L14.691 22.5824H7.23064L1.43786 4.57575L0 4.60718V0Z" fill="#6F7A83"/>
<path d="M36.1579 16.888C35.9282 18.0735 35.6342 19.6406 34.132 21.0461C32.6298 22.4516 30.457 22.968 28.3392 22.968C23.8235 22.968 19.8637 20.8261 19.8637 14.3644C19.8401 13.2387 19.9951 12.1163 20.323 11.037C21.4669 7.22907 24.6412 5.64844 28.1325 5.64844C30.751 5.64844 32.8779 6.54652 34.1044 7.75894C36.5943 10.1254 36.4611 13.9647 36.4289 15.4376H26.0791C26.0791 16.7174 26.1112 18.985 28.2382 18.985C30.0068 18.985 30.2365 17.5167 30.3329 16.906L36.1579 16.888ZM30.3329 12.2808C30.3568 11.838 30.3025 11.3944 30.1721 10.9696C30.03 10.5949 29.7685 10.2748 29.426 10.0564C29.0836 9.83814 28.6784 9.73323 28.2703 9.75718C26.3088 9.75718 26.2444 11.6117 26.2444 12.2808H30.3329Z" fill="#6F7A83"/>
<path d="M54.4824 17.9747H55.8927V22.5819H48.3956V12.8467C48.4157 12.4385 48.3723 12.0297 48.267 11.6343C48.1523 11.3654 47.9549 11.138 47.7023 10.9836C47.4496 10.8291 47.1542 10.7552 46.8567 10.7721C46.6254 10.7722 46.3966 10.8175 46.1835 10.9054C45.9705 10.9933 45.7776 11.1221 45.6163 11.284C45.0283 11.8588 44.9916 12.5907 44.9594 13.5292V18.0196H46.1079V22.5819H37.5312V17.9747H38.9094V10.6015H37.5312V6.01223H44.2428L44.4357 8.54035C44.6938 8.03846 45.0371 7.58296 45.451 7.19322C46.0178 6.65524 46.689 6.2335 47.4251 5.9528C48.1611 5.67209 48.9472 5.5381 49.737 5.5587C51.5056 5.5587 52.6862 6.20083 53.3064 6.84297C54.4181 7.92965 54.4502 9.27229 54.4824 10.4353V17.9747Z" fill="#6F7A83"/>
<path d="M64.0054 0.830078V6.01204H66.7203V10.6013H64.0054V16.569C64.0375 17.1753 64.1019 18.4236 65.6729 18.4236C65.976 18.4262 66.2768 18.3729 66.5595 18.2664V22.4874C65.3849 22.7309 64.1903 22.8707 62.9902 22.905C61.0929 22.905 59.6551 22.3886 58.9338 21.6881C58.0151 20.7901 57.9829 19.6091 57.9829 18.6795V10.6013H56.5083V6.01204H58.4423V2.06944L64.0054 0.830078Z" fill="#6F7A83"/>
<path d="M75.1641 6.01172V15.7066C75.1641 16.3756 75.2284 17.9114 76.7673 17.9114C78.3062 17.9114 78.3705 16.2499 78.3705 15.3877V10.6009L77.1302 10.6324V6.01172H84.4803V18.0057L85.886 17.9742V22.5814H78.908V20.7269C78.3436 21.5369 77.5434 22.1626 76.6111 22.523C75.7877 22.841 74.9102 23.004 74.0248 23.0035C73.3676 23.035 72.7105 22.9381 72.0921 22.7183C71.4737 22.4986 70.9064 22.1605 70.4233 21.7237C69.1462 20.5113 69.0819 18.9082 69.0451 17.377V10.6009L67.667 10.6324V6.01172H75.1641Z" fill="#6F7A83"/>
<path d="M93.98 8.89198C94.2418 7.9939 94.862 5.82502 98.1144 5.82502C98.6566 5.81624 99.1975 5.87968 99.7222 6.01362V11.3258C99.2496 11.2163 98.7654 11.1621 98.2798 11.1641C97.2303 11.1198 96.2021 11.4628 95.3994 12.1251C94.6139 12.893 94.5817 13.7551 94.5817 15.2684L94.5174 17.9627H96.5111V22.5833H87.2041V17.9761H88.6098V10.6028H87.2041V6.01362H93.7824L93.98 8.89198Z" fill="#6F7A83"/>
<path d="M117.275 16.888C117.05 18.0735 116.756 19.6406 115.249 21.0461C113.742 22.4516 111.574 22.968 109.456 22.968C104.941 22.968 100.981 20.8261 100.981 14.3644C100.957 13.2387 101.112 12.1163 101.44 11.037C102.584 7.22907 105.758 5.64844 109.227 5.64844C111.845 5.64844 113.972 6.54652 115.199 7.75894C117.684 10.1254 117.555 13.9647 117.523 15.4376H107.201C107.201 16.7174 107.233 18.985 109.355 18.985C111.124 18.985 111.354 17.5167 111.455 16.906L117.275 16.888ZM111.455 12.2808C111.479 11.8376 111.423 11.3937 111.289 10.9696C111.149 10.5948 110.888 10.2744 110.546 10.056C110.204 9.83756 109.8 9.73277 109.392 9.75718C107.426 9.75718 107.362 11.6117 107.362 12.2808H111.455Z" fill="#6F7A83"/>
</g>
<defs>
<clipPath id="clip0_269_25465">
<rect width="184" height="23" fill="white"/>
</clipPath>
</defs>
</svg>
