<svg width="115" height="24" viewBox="0 0 115 24" fill="none" xmlns="http://www.w3.org/2000/svg">
<g clip-path="url(#clip0_401_328)">
<mask id="mask0_401_328" style="mask-type:luminance" maskUnits="userSpaceOnUse" x="-817" y="-70" width="1057" height="817">
<path d="M-816.642 746.153H239.358V-69.8466H-816.642V746.153Z" fill="white"/>
</mask>
<g mask="url(#mask0_401_328)">
<path d="M40.9248 6.57158C40.9248 5.72758 41.6088 5.04492 42.4528 5.04492H49.0701C50.0941 5.04492 51.0581 5.66492 51.4475 6.67692C51.9515 7.99025 51.2954 9.46225 49.9834 9.96625L44.8554 11.8556C42.9941 12.4982 42.0061 14.5249 42.6461 16.3862C42.9808 17.3596 43.6954 18.0942 44.5661 18.4822L54.1608 22.8369V19.4956L45.7674 15.7836C45.6181 15.7182 45.4954 15.5916 45.4381 15.4249C45.3288 15.1062 45.4981 14.7582 45.8168 14.6489L51.0768 12.8182C53.9634 11.7102 55.4048 8.47158 54.2981 5.58492C53.4421 3.35825 51.3208 1.99025 49.0701 1.99025H42.4528C39.9221 1.99025 37.8701 4.04092 37.8701 6.57158V22.3529H40.9248V6.57158Z" fill="#818B94"/>
</g>
<path d="M57.7539 22.3533H60.8086V1.98926H57.7539V22.3533Z" fill="#818B94"/>
<mask id="mask1_401_328" style="mask-type:luminance" maskUnits="userSpaceOnUse" x="-817" y="-70" width="1057" height="817">
<path d="M-816.642 746.153H239.358V-69.8466H-816.642V746.153Z" fill="white"/>
</mask>
<g mask="url(#mask1_401_328)">
<path d="M15.6147 1.99001L10.1467 18.946C10.0773 19.162 9.87867 19.298 9.66267 19.298C9.44667 19.298 9.25867 19.1687 9.17867 18.946L3.71067 1.99001H0.5L6.27333 19.89C6.76 21.39 8.14933 22.354 9.66267 22.354C11.1773 22.354 12.5627 21.3967 13.052 19.89L18.8267 1.99001H15.6147Z" fill="#818B94"/>
<path d="M79.1671 22.3535L84.6351 5.39752C84.7044 5.18152 84.9017 5.04552 85.1191 5.04552C85.3351 5.04552 85.5231 5.17485 85.6031 5.39618L91.0711 22.3535H94.2831L88.5084 4.45218C88.0217 2.95352 86.6324 1.98952 85.1191 1.98952C83.6044 1.98952 82.2191 2.94685 81.7297 4.45352L75.9551 22.3535H79.1671Z" fill="#818B94"/>
<path d="M25.0672 5.04467H34.7392V1.99H25.0672C22.2552 1.99 19.9766 4.27001 19.9766 7.08067V17.2633C19.9766 20.074 22.2552 22.354 25.0672 22.354H34.7392V19.2993H25.0672C23.9432 19.2993 23.0312 18.3873 23.0312 17.2633V13.674H32.7032V10.67H23.0312V7.08067C23.0312 5.95667 23.9432 5.04467 25.0672 5.04467Z" fill="#818B94"/>
</g>
<path d="M78.2198 1.99001H63.3545V5.04467H69.2598V22.354H72.3145V5.04467H78.2198V1.99001Z" fill="#818B94"/>
<mask id="mask2_401_328" style="mask-type:luminance" maskUnits="userSpaceOnUse" x="-817" y="-70" width="1057" height="817">
<path d="M-816.642 746.153H239.358V-69.8466H-816.642V746.153Z" fill="white"/>
</mask>
<g mask="url(#mask2_401_328)">
<path d="M105.626 22.3535C108.859 22.3535 111.481 19.7322 111.481 16.4988C111.481 13.2655 108.859 10.6442 105.626 10.6442H100.535C98.9887 10.6442 97.734 9.39085 97.734 7.84418C97.734 6.29752 98.9887 5.04418 100.535 5.04418H110.462V1.98952H100.535C97.302 1.98952 94.6807 4.61085 94.6807 7.84418C94.6807 11.0775 97.302 13.6988 100.535 13.6988L105.626 13.7002C107.173 13.7002 108.426 14.9535 108.426 16.4988C108.426 18.0455 107.173 19.2988 105.626 19.2988H95.698V22.3535H105.626Z" fill="#818B94"/>
</g>
<path d="M113.588 1.62526L113.682 1.36126L114.019 0.499925H114.328V1.98926H114.074V1.26126L114.079 1.00659L113.996 1.21726L113.699 1.98926H113.478L113.18 1.21726L113.098 1.00659L113.103 1.26126V1.98926H112.848V0.499925H113.158L113.494 1.36126L113.588 1.62526ZM112.187 1.98926H111.922V0.747925H111.48V0.499925H112.634V0.747925H112.187V1.98926Z" fill="#818B94"/>
</g>
<defs>
<clipPath id="clip0_401_328">
<rect width="114.829" height="23.3368" fill="white"/>
</clipPath>
</defs>
</svg>
