<svg width="144" height="26" viewBox="0 0 144 26" fill="none" xmlns="http://www.w3.org/2000/svg">
<g clip-path="url(#clip0_401_370)">
<path d="M23.7331 23.2601H12.558C12.435 23.2601 12.3171 23.3084 12.2301 23.3945C12.1431 23.4805 12.0943 23.5972 12.0943 23.7188V25.5413C12.094 25.6012 12.1056 25.6607 12.1286 25.7162C12.1515 25.7717 12.1853 25.8222 12.228 25.8648C12.2707 25.9074 12.3214 25.9412 12.3773 25.9644C12.4332 25.9876 12.4932 25.9997 12.5538 26H26.0353C26.096 26.0006 26.1562 25.9892 26.2125 25.9666C26.2687 25.944 26.3199 25.9106 26.363 25.8683C26.4061 25.8261 26.4403 25.7758 26.4637 25.7204C26.4871 25.6649 26.4991 25.6055 26.4991 25.5454V19.1108C26.4991 19.0507 26.4871 18.9911 26.4637 18.9356C26.4404 18.88 26.4062 18.8296 26.3631 18.7872C26.32 18.7447 26.2689 18.7112 26.2126 18.6883C26.1564 18.6655 26.0961 18.6539 26.0353 18.6542H24.1969C24.1361 18.6539 24.0758 18.6655 24.0196 18.6883C23.9633 18.7112 23.9122 18.7447 23.8691 18.7872C23.826 18.8296 23.7918 18.88 23.7685 18.9356C23.7451 18.9911 23.7331 19.0507 23.7331 19.1108V23.2601ZM2.76805 2.66517H15.1267C15.1876 2.66517 15.2479 2.65331 15.3042 2.63026C15.3605 2.60721 15.4116 2.57342 15.4547 2.53082C15.4978 2.48822 15.5319 2.43765 15.5552 2.382C15.5785 2.32634 15.5905 2.2667 15.5905 2.20646V0.458735C15.5905 0.398494 15.5785 0.338837 15.5552 0.283181C15.5319 0.227526 15.4978 0.176956 15.4547 0.134359C15.4116 0.0917624 15.3605 0.0579735 15.3042 0.0349204C15.2479 0.0118673 15.1876 4.739e-06 15.1267 4.739e-06H0.463784C0.341502 -2.13732e-07 0.224169 0.0477575 0.137311 0.132889C0.0504529 0.218021 0.00110662 0.333639 0 0.45458V6.69824C0.000546732 6.81937 0.0492906 6.93542 0.135697 7.02127C0.222104 7.10712 0.339212 7.15586 0.461683 7.15695H2.30426C2.42674 7.15641 2.54407 7.1082 2.63087 7.02274C2.71766 6.93728 2.76695 6.82143 2.76805 6.7003V2.66517ZM19.5317 4.739e-06H26.0374C26.098 -0.000268464 26.1581 0.0112735 26.2142 0.0339702C26.2703 0.056667 26.3214 0.0900701 26.3645 0.132281C26.4075 0.174493 26.4418 0.224689 26.4652 0.279989C26.4887 0.335288 26.5009 0.394611 26.5012 0.45458V6.6235C26.5014 6.68347 26.4898 6.74291 26.4668 6.79842C26.4439 6.85393 26.4101 6.90442 26.3674 6.94702C26.3248 6.98961 26.274 7.02348 26.2181 7.04668C26.1622 7.06988 26.1022 7.08196 26.0416 7.08223H24.199C24.1382 7.08251 24.0779 7.07089 24.0217 7.04806C23.9654 7.02524 23.9143 6.99165 23.8712 6.94922C23.8281 6.90679 23.7939 6.85636 23.7706 6.80082C23.7472 6.74528 23.7352 6.68572 23.7352 6.62558V4.7284L4.12376 23.2622H8.15728C8.28028 23.2622 8.39823 23.3105 8.48521 23.3965C8.57219 23.4826 8.62106 23.5992 8.62106 23.7209V25.5434C8.62106 25.6035 8.60904 25.6631 8.58571 25.7186C8.56238 25.7741 8.5282 25.8246 8.48511 25.867C8.44201 25.9094 8.39086 25.943 8.3346 25.9658C8.27835 25.9887 8.21809 26.0003 8.15728 26H0.465884C0.34341 25.9995 0.226083 25.9512 0.139284 25.8658C0.0524843 25.7803 0.00320282 25.6645 0.00210065 25.5434V23.2726L21.7394 2.73783H19.5338C19.411 2.73728 19.2933 2.68878 19.2065 2.60287C19.1196 2.51696 19.0706 2.40059 19.07 2.2791V0.458735C19.07 0.337073 19.1189 0.220387 19.2059 0.134359C19.2928 0.0483313 19.4108 4.739e-06 19.5338 4.739e-06M137.163 17.3693C137.735 17.3757 138.301 17.2611 138.825 17.0331C139.329 16.8148 139.784 16.4994 140.164 16.1052C140.549 15.7083 140.856 15.2437 141.068 14.7353C141.398 13.9377 141.487 13.0632 141.327 12.2165C141.167 11.3697 140.763 10.5867 140.164 9.9612C139.78 9.5661 139.321 9.25067 138.812 9.03338C138.287 8.81156 137.722 8.6972 137.151 8.6972C136.58 8.6972 136.015 8.81156 135.49 9.03338C134.987 9.25287 134.532 9.56812 134.151 9.9612C133.771 10.359 133.473 10.8265 133.274 11.3374C132.852 12.4259 132.852 13.6302 133.274 14.7187C133.478 15.2289 133.78 15.6949 134.164 16.0907C134.543 16.4846 134.997 16.8 135.501 17.0185C136.023 17.251 136.59 17.3706 137.163 17.3693ZM137.163 19.802C136.244 19.8047 135.335 19.621 134.491 19.2623C132.86 18.5791 131.561 17.2962 130.867 15.6839C130.513 14.8473 130.33 13.9495 130.33 13.0426C130.33 12.1356 130.513 11.2378 130.867 10.4012C131.553 8.779 132.854 7.487 134.491 6.80202C135.337 6.45206 136.246 6.27185 137.163 6.27185C138.08 6.27185 138.988 6.45206 139.834 6.80202C141.473 7.48531 142.774 8.77787 143.459 10.4012C143.812 11.2379 143.994 12.1357 143.994 13.0426C143.994 13.9494 143.812 14.8472 143.459 15.6839C142.766 17.3028 141.461 18.5895 139.822 19.2686C138.979 19.6241 138.071 19.8056 137.154 19.802H137.163ZM122.666 6.5384H124.953V5.79115C124.936 4.94546 125.022 4.10082 125.209 3.27543C125.343 2.6761 125.637 2.12338 126.061 1.67508C126.504 1.24562 127.061 0.947876 127.667 0.815746C128.501 0.630036 129.355 0.545011 130.21 0.562519H130.84V2.96823H130.399C129.891 2.96025 129.383 2.99288 128.88 3.06579C128.553 3.10545 128.249 3.2515 128.015 3.48093C127.804 3.72734 127.668 4.02842 127.625 4.34856C127.553 4.83437 127.52 5.32513 127.528 5.81607V6.5384H130.617V8.87355H127.528V19.5363H124.949V8.87355H122.661L122.666 6.5384ZM110.156 6.5384H112.735V8.33802C113.208 7.67753 113.839 7.1426 114.571 6.78056C115.303 6.41852 116.114 6.24053 116.932 6.26234C117.702 6.25204 118.466 6.38731 119.184 6.66086C119.829 6.9083 120.411 7.29391 120.888 7.79003C121.368 8.3121 121.732 8.92706 121.958 9.59588C122.217 10.3668 122.344 11.1749 122.334 11.9871V19.526H119.681V12.1863C119.681 11.0793 119.397 10.1965 118.829 9.53777C118.261 8.87908 117.426 8.54974 116.324 8.54974C115.844 8.54535 115.368 8.63495 114.924 8.81336C114.501 8.98689 114.119 9.24561 113.803 9.57305C113.476 9.9203 113.224 10.33 113.062 10.7769C112.878 11.2819 112.787 11.8156 112.794 12.3524V19.5218H110.166L110.156 6.5384ZM105.218 6.5384H107.87V19.5322H105.218V6.5384ZM104.683 2.6382C104.676 2.3941 104.718 2.15108 104.808 1.92358C104.898 1.69609 105.033 1.48876 105.205 1.31392C105.377 1.14006 105.584 1.00329 105.812 0.912208C106.041 0.821123 106.285 0.777678 106.532 0.784606C106.783 0.775193 107.033 0.817362 107.267 0.908458C107.502 0.999553 107.714 1.13761 107.891 1.31392C108.063 1.48887 108.198 1.69626 108.288 1.92376C108.377 2.15126 108.419 2.39423 108.412 2.6382C108.42 2.8822 108.377 3.12523 108.288 3.35277C108.199 3.5803 108.064 3.78766 107.891 3.96248C107.714 4.14175 107.501 4.28222 107.265 4.37482C107.029 4.46743 106.777 4.5101 106.523 4.50008C106.275 4.51005 106.027 4.46805 105.796 4.37684C105.566 4.28563 105.357 4.14726 105.184 3.97079C105.014 3.79401 104.881 3.58547 104.794 3.35737C104.706 3.12927 104.666 2.88619 104.674 2.64234L104.683 2.6382ZM82.9789 6.5384H85.5811V8.02874C85.9828 7.48616 86.5084 7.04519 87.1152 6.74182C87.7965 6.41183 88.5478 6.24812 89.3061 6.26441C90.3596 6.26441 91.2313 6.46368 91.921 6.86221C92.603 7.25656 93.1504 7.84348 93.4928 8.54766C93.9147 7.85649 94.5095 7.28456 95.22 6.88712C96 6.45813 96.8818 6.24315 97.774 6.26441C98.5708 6.24774 99.3637 6.37868 100.112 6.65049C100.746 6.88399 101.315 7.26319 101.772 7.75683C102.221 8.25765 102.554 8.85006 102.746 9.4921C102.965 10.2263 103.072 10.989 103.063 11.7546V19.528H100.355V11.8978C100.355 10.8877 100.12 10.0767 99.6502 9.46511C99.1801 8.85348 98.4246 8.54905 97.3837 8.55182C96.9653 8.53302 96.5477 8.60335 96.1592 8.75806C95.7707 8.91276 95.4204 9.14824 95.1319 9.44852C94.5722 10.0463 94.2924 10.9458 94.2924 12.1469V19.5384H91.6419V11.7401C91.6419 10.7437 91.4111 9.96536 90.9494 9.40492C90.4877 8.84449 89.7532 8.56358 88.7458 8.56219C87.7665 8.56219 86.997 8.87147 86.4374 9.49002C85.8777 10.1086 85.5979 11.035 85.5979 12.2694V19.5342H82.9705L82.9789 6.5384ZM74.5844 17.2925C75.1372 17.2961 75.6849 17.1874 76.1935 16.9732C76.7021 16.7589 77.1609 16.4438 77.5413 16.0471C77.9113 15.6535 78.2076 15.1981 78.4165 14.7021C78.8551 13.6375 78.8551 12.4455 78.4165 11.381C78.207 10.8823 77.906 10.4263 77.5288 10.0359C77.1514 9.64503 76.7 9.3312 76.2004 9.11224C75.688 8.88852 75.134 8.77297 74.5739 8.77297C74.0138 8.77297 73.4599 8.88852 72.9475 9.11224C71.9473 9.55488 71.1617 10.3669 70.7587 11.3747C70.3373 12.4425 70.3373 13.628 70.7587 14.6958C71.1635 15.7009 71.9477 16.5108 72.9454 16.9542C73.4606 17.1802 74.0187 17.2948 74.5823 17.2904M74.5823 19.7937C73.6665 19.7975 72.7595 19.616 71.9171 19.2603C70.2728 18.5805 68.9654 17.2874 68.2781 15.661C67.9239 14.8263 67.7414 13.9302 67.7414 13.0249C67.7414 12.1197 67.9239 11.2235 68.2781 10.3888C68.9662 8.76347 70.2735 7.47129 71.9171 6.79163C72.761 6.44123 73.6671 6.26075 74.5823 6.26075C75.4976 6.26075 76.4037 6.44123 77.2476 6.79163C78.8911 7.4708 80.1978 8.76323 80.8845 10.3888C81.2377 11.2237 81.4196 12.1198 81.4196 13.0249C81.4196 13.93 81.2377 14.8261 80.8845 15.661C80.1973 17.2867 78.8908 18.5797 77.2476 19.2603C76.4051 19.6156 75.4982 19.7971 74.5823 19.7937ZM59.8333 17.2904C60.3861 17.2935 60.9336 17.1846 61.4421 16.9704C61.9507 16.7562 62.4095 16.4413 62.7903 16.045C63.1609 15.652 63.4573 15.1965 63.6654 14.7C64.1062 13.6359 64.1062 12.443 63.6654 11.3789C63.4559 10.8803 63.1549 10.4242 62.7777 10.0338C62.4014 9.64256 61.9507 9.32866 61.4514 9.11018C60.9394 8.88742 60.3863 8.77239 59.827 8.77239C59.2678 8.77239 58.7146 8.88742 58.2027 9.11018C57.2017 9.55238 56.4153 10.3644 56.0118 11.3727C55.5904 12.4405 55.5904 13.626 56.0118 14.6938C56.4153 15.702 57.2017 16.5141 58.2027 16.9563C58.7151 17.1847 59.2713 17.3008 59.8333 17.2967M59.8333 19.7999C58.9174 19.8038 58.0105 19.6222 57.1681 19.2665C55.5243 18.586 54.2172 17.2931 53.5291 15.6673C53.1759 14.8323 52.994 13.9362 52.994 13.0311C52.994 12.126 53.1759 11.23 53.5291 10.395C54.2172 8.7697 55.5244 7.47753 57.1681 6.79786C58.012 6.44746 58.9181 6.26698 59.8333 6.26698C60.7486 6.26698 61.6546 6.44746 62.4986 6.79786C64.1422 7.47753 65.4494 8.7697 66.1376 10.395C66.4897 11.2303 66.6709 12.1262 66.6709 13.0311C66.6709 13.9361 66.4897 14.832 66.1376 15.6673C65.4503 17.2936 64.1429 18.5867 62.4986 19.2665C61.6562 19.6222 60.7492 19.8038 59.8333 19.7999ZM39.4999 19.5342V17.1451L48.461 8.8175H42.1756V10.4531H39.6427V6.53633H51.8334V8.92544L42.9354 17.2095H49.441V15.5489H51.9741V19.5425L39.4999 19.5342Z" fill="#818B94"/>
</g>
<defs>
<clipPath id="clip0_401_370">
<rect width="144" height="26" fill="white"/>
</clipPath>
</defs>
</svg>
